<svg width="1920" height="109" viewBox="0 0 1920 109" fill="none" xmlns="http://www.w3.org/2000/svg">
<path opacity="0.8" d="M497.246 20V10.13H498.212L502.006 17.256L505.772 10.13H506.738V20H505.674V12.286L502.384 18.474H501.628L498.296 12.3V20H497.246ZM509.097 20V13.196H510.231V15.618H512.289C513.157 15.618 513.815 15.8093 514.263 16.192C514.711 16.5653 514.935 17.0973 514.935 17.788C514.935 18.4693 514.701 19.0107 514.235 19.412C513.777 19.804 513.129 20 512.289 20H509.097ZM515.943 20V13.196H517.077V20H515.943ZM510.231 19.188H512.177C512.699 19.188 513.105 19.076 513.395 18.852C513.693 18.628 513.843 18.278 513.843 17.802C513.843 17.3353 513.698 16.99 513.409 16.766C513.119 16.542 512.709 16.43 512.177 16.43H510.231V19.188ZM522.919 20V13.196H526.237C527.039 13.196 527.632 13.35 528.015 13.658C528.397 13.9567 528.589 14.4 528.589 14.988C528.589 15.3427 528.486 15.6507 528.281 15.912C528.085 16.1733 527.814 16.3647 527.469 16.486C527.889 16.5887 528.215 16.7847 528.449 17.074C528.691 17.3633 528.813 17.7133 528.813 18.124C528.813 18.7027 528.598 19.16 528.169 19.496C527.739 19.832 527.133 20 526.349 20H522.919ZM523.997 16.15H526.181C526.61 16.15 526.941 16.0567 527.175 15.87C527.408 15.674 527.525 15.3987 527.525 15.044C527.525 14.6987 527.408 14.4327 527.175 14.246C526.941 14.0593 526.61 13.966 526.181 13.966H523.997V16.15ZM523.997 19.23H526.307C526.773 19.23 527.128 19.132 527.371 18.936C527.613 18.74 527.735 18.4507 527.735 18.068C527.735 17.6947 527.613 17.41 527.371 17.214C527.128 17.018 526.773 16.92 526.307 16.92H523.997V19.23ZM537.069 20.126C536.387 20.126 535.799 19.9813 535.305 19.692C534.81 19.3933 534.427 18.978 534.157 18.446C533.895 17.9047 533.765 17.2747 533.765 16.556C533.765 15.4733 534.059 14.624 534.647 14.008C535.235 13.3827 536.042 13.07 537.069 13.07C537.489 13.07 537.904 13.1447 538.315 13.294C538.725 13.4433 539.066 13.6533 539.337 13.924L538.945 14.75C538.674 14.4887 538.375 14.2973 538.049 14.176C537.731 14.0547 537.428 13.994 537.139 13.994C536.429 13.994 535.883 14.218 535.501 14.666C535.118 15.1047 534.927 15.7393 534.927 16.57C534.927 17.382 535.118 18.026 535.501 18.502C535.883 18.9687 536.429 19.202 537.139 19.202C537.428 19.202 537.731 19.1413 538.049 19.02C538.375 18.8987 538.674 18.7027 538.945 18.432L539.337 19.258C539.066 19.5287 538.721 19.7433 538.301 19.902C537.89 20.0513 537.479 20.126 537.069 20.126ZM543.63 20.126C542.967 20.126 542.393 19.9813 541.908 19.692C541.423 19.4027 541.045 18.9967 540.774 18.474C540.513 17.942 540.382 17.3167 540.382 16.598C540.382 15.8793 540.513 15.2587 540.774 14.736C541.045 14.204 541.423 13.7933 541.908 13.504C542.393 13.2147 542.967 13.07 543.63 13.07C544.283 13.07 544.853 13.2147 545.338 13.504C545.833 13.7933 546.211 14.204 546.472 14.736C546.743 15.2587 546.878 15.8793 546.878 16.598C546.878 17.3167 546.743 17.942 546.472 18.474C546.211 18.9967 545.833 19.4027 545.338 19.692C544.853 19.9813 544.283 20.126 543.63 20.126ZM543.63 19.216C544.265 19.216 544.773 18.992 545.156 18.544C545.539 18.0867 545.73 17.438 545.73 16.598C545.73 15.7487 545.539 15.1 545.156 14.652C544.773 14.204 544.265 13.98 543.63 13.98C542.986 13.98 542.473 14.204 542.09 14.652C541.717 15.1 541.53 15.7487 541.53 16.598C541.53 17.438 541.717 18.0867 542.09 18.544C542.473 18.992 542.986 19.216 543.63 19.216ZM554.598 21.82V20H548.718V13.196H549.852V19.09H553.366V13.196H554.5V19.09H555.578V21.82H554.598ZM557.085 20V13.196H558.121V18.46L562.055 13.196H563.021V20H561.985V14.736L558.051 20H557.085ZM567.417 20.126C566.95 20.126 566.53 20.0373 566.157 19.86C565.793 19.6733 565.503 19.4213 565.289 19.104C565.074 18.7867 564.967 18.432 564.967 18.04C564.967 17.5453 565.093 17.1533 565.345 16.864C565.606 16.5747 566.031 16.3693 566.619 16.248C567.216 16.1173 568.028 16.052 569.055 16.052H569.503V15.618C569.503 15.0393 569.381 14.624 569.139 14.372C568.905 14.1107 568.527 13.98 568.005 13.98C567.594 13.98 567.197 14.0407 566.815 14.162C566.432 14.274 566.04 14.4607 565.639 14.722L565.247 13.896C565.601 13.644 566.031 13.4433 566.535 13.294C567.048 13.1447 567.538 13.07 568.005 13.07C568.882 13.07 569.531 13.2847 569.951 13.714C570.38 14.1433 570.595 14.8107 570.595 15.716V20H569.531V18.824C569.353 19.2253 569.078 19.5427 568.705 19.776C568.341 20.0093 567.911 20.126 567.417 20.126ZM567.599 19.272C568.159 19.272 568.616 19.0807 568.971 18.698C569.325 18.306 569.503 17.8113 569.503 17.214V16.794H569.069C568.313 16.794 567.715 16.8313 567.277 16.906C566.847 16.9713 566.544 17.0927 566.367 17.27C566.199 17.438 566.115 17.6713 566.115 17.97C566.115 18.3527 566.245 18.6653 566.507 18.908C566.777 19.1507 567.141 19.272 567.599 19.272ZM572.43 20.154L572.01 19.258C572.43 19.0807 572.761 18.8333 573.004 18.516C573.246 18.1893 573.414 17.7413 573.508 17.172C573.61 16.6027 573.662 15.856 573.662 14.932V13.196H578.604V20H577.47V14.106H574.726V14.974C574.726 16.038 574.646 16.9153 574.488 17.606C574.338 18.2967 574.096 18.8427 573.76 19.244C573.424 19.6453 572.98 19.9487 572.43 20.154ZM580.847 20V13.196H581.981V15.618H584.039C584.907 15.618 585.565 15.8093 586.013 16.192C586.461 16.5653 586.685 17.0973 586.685 17.788C586.685 18.4693 586.451 19.0107 585.985 19.412C585.527 19.804 584.879 20 584.039 20H580.847ZM581.981 19.188H583.927C584.449 19.188 584.855 19.076 585.145 18.852C585.443 18.628 585.593 18.278 585.593 17.802C585.593 17.3353 585.448 16.99 585.159 16.766C584.869 16.542 584.459 16.43 583.927 16.43H581.981V19.188ZM588.366 20V13.196H589.5V16.024H593.21V13.196H594.344V20H593.21V16.948H589.5V20H588.366ZM596.583 20V13.196H597.717V15.618H599.775C600.643 15.618 601.301 15.8093 601.749 16.192C602.197 16.5653 602.421 17.0973 602.421 17.788C602.421 18.4693 602.188 19.0107 601.721 19.412C601.264 19.804 600.615 20 599.775 20H596.583ZM603.429 20V13.196H604.563V20H603.429ZM597.717 19.188H599.663C600.186 19.188 600.592 19.076 600.881 18.852C601.18 18.628 601.329 18.278 601.329 17.802C601.329 17.3353 601.184 16.99 600.895 16.766C600.606 16.542 600.195 16.43 599.663 16.43H597.717V19.188ZM605.955 20L608.783 16.486L606.123 13.196H607.467L609.441 15.702L611.429 13.196H612.759L610.099 16.486L612.927 20H611.583L609.427 17.298L607.299 20H605.955ZM620.795 20.126C620.114 20.126 619.526 19.9813 619.031 19.692C618.537 19.3933 618.154 18.978 617.883 18.446C617.622 17.9047 617.491 17.2747 617.491 16.556C617.491 15.4733 617.785 14.624 618.373 14.008C618.961 13.3827 619.769 13.07 620.795 13.07C621.215 13.07 621.631 13.1447 622.041 13.294C622.452 13.4433 622.793 13.6533 623.063 13.924L622.671 14.75C622.401 14.4887 622.102 14.2973 621.775 14.176C621.458 14.0547 621.155 13.994 620.865 13.994C620.156 13.994 619.61 14.218 619.227 14.666C618.845 15.1047 618.653 15.7393 618.653 16.57C618.653 17.382 618.845 18.026 619.227 18.502C619.61 18.9687 620.156 19.202 620.865 19.202C621.155 19.202 621.458 19.1413 621.775 19.02C622.102 18.8987 622.401 18.7027 622.671 18.432L623.063 19.258C622.793 19.5287 622.447 19.7433 622.027 19.902C621.617 20.0513 621.206 20.126 620.795 20.126ZM627.595 20.126C626.521 20.126 625.672 19.8133 625.047 19.188C624.421 18.5533 624.109 17.6947 624.109 16.612C624.109 15.912 624.249 15.296 624.529 14.764C624.809 14.2227 625.191 13.8073 625.677 13.518C626.171 13.2193 626.741 13.07 627.385 13.07C628.309 13.07 629.032 13.3687 629.555 13.966C630.077 14.554 630.339 15.366 630.339 16.402V16.836H625.215C625.252 17.6107 625.476 18.2033 625.887 18.614C626.297 19.0153 626.867 19.216 627.595 19.216C628.005 19.216 628.397 19.1553 628.771 19.034C629.144 18.9033 629.499 18.6933 629.835 18.404L630.227 19.202C629.919 19.4913 629.527 19.72 629.051 19.888C628.575 20.0467 628.089 20.126 627.595 20.126ZM627.413 13.91C626.769 13.91 626.26 14.1107 625.887 14.512C625.513 14.9133 625.294 15.4407 625.229 16.094H629.359C629.331 15.4033 629.149 14.8667 628.813 14.484C628.486 14.1013 628.019 13.91 627.413 13.91ZM633.516 20V14.106H631.052V13.196H637.128V14.106H634.65V20H633.516ZM637.763 20L638.813 18.18C639.093 17.6853 639.452 17.3633 639.891 17.214C639.312 17.13 638.864 16.92 638.547 16.584C638.23 16.2387 638.071 15.7907 638.071 15.24C638.071 14.6147 638.276 14.12 638.687 13.756C639.107 13.3827 639.732 13.196 640.563 13.196H643.629V20H642.551V17.41H641.557C641.184 17.41 640.866 17.5033 640.605 17.69C640.353 17.8767 640.148 18.1053 639.989 18.376L639.065 20H637.763ZM640.773 16.584H642.551V13.994H640.773C640.222 13.994 639.816 14.1107 639.555 14.344C639.294 14.568 639.163 14.8807 639.163 15.282C639.163 15.6927 639.294 16.0147 639.555 16.248C639.816 16.472 640.222 16.584 640.773 16.584ZM645.016 20L647.844 16.486L645.184 13.196H646.528L648.502 15.702L650.49 13.196H651.82L649.16 16.486L651.988 20H650.644L648.488 17.298L646.36 20H645.016ZM653.124 14.624V13.196H654.552V14.624H653.124ZM653.124 20V18.572H654.552V20H653.124Z" fill="white"/>
<rect opacity="0.3" x="256" y="44" width="1408" height="1" fill="white"/>
<rect opacity="0.3" y="108" width="1920" height="1" fill="white"/>
<path d="M1430.06 20.36V17.112H1426.9V15.704H1430.06V12.552H1431.54V15.704H1434.7V17.112H1431.54V20.36H1430.06ZM1436.97 21L1442.06 11.432H1436.47V9.72H1444.33V11.256L1439.23 21H1436.97ZM1453.31 24.12C1452.52 22.9467 1451.95 21.752 1451.61 20.536C1451.27 19.3093 1451.1 18.0613 1451.1 16.792C1451.1 15.512 1451.27 14.264 1451.61 13.048C1451.95 11.832 1452.52 10.6373 1453.31 9.464L1454.67 10.008C1454.17 11.2347 1453.8 12.3813 1453.58 13.448C1453.36 14.504 1453.24 15.6187 1453.24 16.792C1453.24 17.9547 1453.36 19.0693 1453.58 20.136C1453.8 21.2027 1454.17 22.3493 1454.67 23.576L1453.31 24.12ZM1460.03 21.16C1458.72 21.16 1457.69 20.8773 1456.95 20.312C1456.21 19.7467 1455.84 18.9627 1455.84 17.96C1455.84 17.2773 1456.02 16.696 1456.37 16.216C1456.73 15.736 1457.2 15.4 1457.78 15.208C1457.27 14.984 1456.86 14.6427 1456.56 14.184C1456.27 13.7253 1456.13 13.1973 1456.13 12.6C1456.13 11.6507 1456.48 10.9093 1457.19 10.376C1457.89 9.832 1458.84 9.56 1460.03 9.56C1461.24 9.56 1462.19 9.832 1462.9 10.376C1463.6 10.9093 1463.95 11.6507 1463.95 12.6C1463.95 13.1973 1463.81 13.7307 1463.51 14.2C1463.22 14.6587 1462.82 14.9947 1462.32 15.208C1462.9 15.4 1463.36 15.7413 1463.7 16.232C1464.05 16.712 1464.23 17.288 1464.23 17.96C1464.23 18.9627 1463.85 19.7467 1463.11 20.312C1462.37 20.8773 1461.35 21.16 1460.03 21.16ZM1460.03 14.488C1460.66 14.488 1461.15 14.3387 1461.51 14.04C1461.87 13.7413 1462.05 13.3307 1462.05 12.808C1462.05 12.296 1461.87 11.896 1461.51 11.608C1461.15 11.3093 1460.66 11.16 1460.03 11.16C1459.41 11.16 1458.91 11.3093 1458.56 11.608C1458.21 11.896 1458.03 12.296 1458.03 12.808C1458.03 13.3307 1458.21 13.7413 1458.56 14.04C1458.91 14.3387 1459.41 14.488 1460.03 14.488ZM1460.03 19.56C1461.56 19.56 1462.32 18.9787 1462.32 17.816C1462.32 16.664 1461.56 16.088 1460.03 16.088C1459.29 16.088 1458.72 16.232 1458.32 16.52C1457.94 16.808 1457.75 17.24 1457.75 17.816C1457.75 18.392 1457.94 18.8293 1458.32 19.128C1458.72 19.416 1459.29 19.56 1460.03 19.56ZM1469.63 21.16C1468.29 21.16 1467.28 20.6587 1466.57 19.656C1465.87 18.6427 1465.52 17.2027 1465.52 15.336C1465.52 13.448 1465.87 12.0133 1466.57 11.032C1467.28 10.0507 1468.29 9.56 1469.63 9.56C1470.97 9.56 1471.99 10.0507 1472.68 11.032C1473.39 12.0133 1473.74 13.4427 1473.74 15.32C1473.74 17.1973 1473.39 18.6427 1472.68 19.656C1471.98 20.6587 1470.96 21.16 1469.63 21.16ZM1469.63 19.48C1470.35 19.48 1470.89 19.1493 1471.23 18.488C1471.58 17.816 1471.76 16.76 1471.76 15.32C1471.76 13.8907 1471.58 12.856 1471.23 12.216C1470.89 11.5653 1470.35 11.24 1469.63 11.24C1468.91 11.24 1468.38 11.5653 1468.03 12.216C1467.68 12.856 1467.5 13.8907 1467.5 15.32C1467.5 16.76 1467.68 17.816 1468.03 18.488C1468.38 19.1493 1468.91 19.48 1469.63 19.48ZM1479.22 21.16C1477.89 21.16 1476.87 20.6587 1476.17 19.656C1475.46 18.6427 1475.11 17.2027 1475.11 15.336C1475.11 13.448 1475.46 12.0133 1476.17 11.032C1476.87 10.0507 1477.89 9.56 1479.22 9.56C1480.57 9.56 1481.58 10.0507 1482.28 11.032C1482.98 12.0133 1483.33 13.4427 1483.33 15.32C1483.33 17.1973 1482.98 18.6427 1482.28 19.656C1481.57 20.6587 1480.56 21.16 1479.22 21.16ZM1479.22 19.48C1479.95 19.48 1480.48 19.1493 1480.82 18.488C1481.17 17.816 1481.35 16.76 1481.35 15.32C1481.35 13.8907 1481.17 12.856 1480.82 12.216C1480.48 11.5653 1479.95 11.24 1479.22 11.24C1478.51 11.24 1477.97 11.5653 1477.62 12.216C1477.27 12.856 1477.09 13.8907 1477.09 15.32C1477.09 16.76 1477.27 17.816 1477.62 18.488C1477.97 19.1493 1478.51 19.48 1479.22 19.48ZM1485.94 24.12L1484.58 23.576C1485.08 22.3387 1485.44 21.1867 1485.66 20.12C1485.89 19.0533 1486 17.944 1486 16.792C1486 15.64 1485.89 14.5307 1485.66 13.464C1485.44 12.3973 1485.08 11.2453 1484.58 10.008L1485.94 9.464C1486.72 10.6373 1487.29 11.8373 1487.63 13.064C1487.97 14.28 1488.14 15.5227 1488.14 16.792C1488.14 18.0613 1487.97 19.3093 1487.63 20.536C1487.29 21.752 1486.72 22.9467 1485.94 24.12ZM1495.81 21V19.304H1498.35V12.056L1496.38 13.24L1495.58 11.736L1498.94 9.72H1500.4V19.304H1502.78V21H1495.81ZM1504.94 21V19.48L1508.58 15.592C1509.07 15.0587 1509.43 14.5893 1509.64 14.184C1509.85 13.768 1509.96 13.3467 1509.96 12.92C1509.96 11.832 1509.3 11.288 1507.99 11.288C1506.97 11.288 1506.02 11.672 1505.16 12.44L1504.47 10.904C1504.92 10.4987 1505.48 10.1733 1506.15 9.928C1506.82 9.68267 1507.52 9.56 1508.25 9.56C1509.45 9.56 1510.38 9.832 1511.02 10.376C1511.67 10.92 1511.99 11.6987 1511.99 12.712C1511.99 13.3947 1511.83 14.0507 1511.5 14.68C1511.18 15.3093 1510.67 15.9867 1509.98 16.712L1507.5 19.304H1512.42V21H1504.94ZM1517.83 21.16C1517.06 21.16 1516.32 21.048 1515.62 20.824C1514.92 20.5893 1514.35 20.2747 1513.89 19.88L1514.56 18.312C1515.52 19.0587 1516.59 19.432 1517.76 19.432C1519.2 19.432 1519.92 18.8667 1519.92 17.736C1519.92 17.2027 1519.74 16.808 1519.38 16.552C1519.03 16.2853 1518.51 16.152 1517.83 16.152H1516.02V14.456H1517.63C1518.23 14.456 1518.71 14.312 1519.06 14.024C1519.41 13.7253 1519.59 13.3147 1519.59 12.792C1519.59 12.3013 1519.42 11.928 1519.09 11.672C1518.77 11.416 1518.3 11.288 1517.68 11.288C1516.57 11.288 1515.6 11.672 1514.75 12.44L1514.08 10.904C1514.53 10.4773 1515.09 10.1467 1515.76 9.912C1516.43 9.67733 1517.13 9.56 1517.86 9.56C1519.03 9.56 1519.94 9.82667 1520.59 10.36C1521.24 10.8827 1521.57 11.6133 1521.57 12.552C1521.57 13.16 1521.42 13.6933 1521.11 14.152C1520.8 14.6107 1520.38 14.9413 1519.84 15.144C1520.49 15.3253 1521 15.6613 1521.36 16.152C1521.72 16.632 1521.91 17.2187 1521.91 17.912C1521.91 18.9147 1521.54 19.7093 1520.82 20.296C1520.09 20.872 1519.1 21.16 1517.83 21.16ZM1523.93 17.512V15.912H1528.7V17.512H1523.93ZM1535.37 21V18.856H1530.45V17.352L1535.72 9.72H1537.41V17.16H1539V18.856H1537.41V21H1535.37ZM1535.37 17.16V12.856L1532.42 17.16H1535.37ZM1544.27 21.16C1543.54 21.16 1542.82 21.048 1542.13 20.824C1541.43 20.5893 1540.87 20.2747 1540.43 19.88L1541.1 18.312C1542.07 19.0587 1543.12 19.432 1544.24 19.432C1544.91 19.432 1545.43 19.2613 1545.81 18.92C1546.19 18.568 1546.38 18.0987 1546.38 17.512C1546.38 16.9147 1546.2 16.4347 1545.84 16.072C1545.48 15.6987 1544.98 15.512 1544.35 15.512C1543.46 15.512 1542.71 15.8693 1542.13 16.584H1540.75V9.72H1547.68V11.416H1542.75V14.472C1543.32 14.0453 1544.01 13.832 1544.83 13.832C1545.55 13.832 1546.16 13.9867 1546.69 14.296C1547.22 14.5947 1547.63 15.016 1547.92 15.56C1548.22 16.0933 1548.37 16.7173 1548.37 17.432C1548.37 18.168 1548.2 18.8187 1547.87 19.384C1547.54 19.9387 1547.07 20.376 1546.45 20.696C1545.84 21.0053 1545.11 21.16 1544.27 21.16ZM1550.06 17.512V15.912H1554.82V17.512H1550.06ZM1561.12 21.16C1559.72 21.16 1558.64 20.6693 1557.87 19.688C1557.12 18.7067 1556.74 17.3307 1556.74 15.56C1556.74 13.6507 1557.16 12.1733 1558.02 11.128C1558.88 10.0827 1560.07 9.56 1561.59 9.56C1562.18 9.56 1562.78 9.672 1563.36 9.896C1563.95 10.1093 1564.45 10.4187 1564.87 10.824L1564.19 12.36C1563.8 11.9973 1563.38 11.7307 1562.93 11.56C1562.48 11.3787 1562.02 11.288 1561.55 11.288C1560.63 11.288 1559.92 11.6133 1559.43 12.264C1558.94 12.9147 1558.69 13.8853 1558.69 15.176V15.64C1558.91 15.0533 1559.28 14.5947 1559.78 14.264C1560.28 13.9333 1560.86 13.768 1561.51 13.768C1562.16 13.768 1562.73 13.9227 1563.23 14.232C1563.74 14.5413 1564.13 14.968 1564.42 15.512C1564.71 16.056 1564.85 16.68 1564.85 17.384C1564.85 18.1093 1564.69 18.76 1564.37 19.336C1564.06 19.9013 1563.62 20.3493 1563.06 20.68C1562.5 21 1561.86 21.16 1561.12 21.16ZM1561.01 19.528C1561.59 19.528 1562.05 19.3413 1562.4 18.968C1562.76 18.584 1562.95 18.0827 1562.95 17.464C1562.95 16.8453 1562.76 16.344 1562.4 15.96C1562.05 15.576 1561.59 15.384 1561.01 15.384C1560.43 15.384 1559.96 15.576 1559.6 15.96C1559.25 16.344 1559.07 16.8453 1559.07 17.464C1559.07 18.0827 1559.25 18.584 1559.6 18.968C1559.96 19.3413 1560.43 19.528 1561.01 19.528ZM1566.88 21L1571.96 11.432H1566.38V9.72H1574.24V11.256L1569.13 21H1566.88Z" fill="white"/>
<rect x="256.5" y="60.5" width="97.333" height="31" rx="15.5" stroke="white" stroke-opacity="0.3"/>
<path d="M276.666 74.6669C277.034 74.6669 277.333 74.3683 277.333 74.0003C277.333 73.6323 277.034 73.3336 276.666 73.3336C276.298 73.3336 276 73.6323 276 74.0003C276 74.3683 276.298 74.6669 276.666 74.6669Z" fill="white"/>
<path d="M275.798 81.7554L276.07 82.2981C276.183 82.5241 276.414 82.6667 276.666 82.6667C276.919 82.6667 277.15 82.5241 277.263 82.2981L277.838 81.1488C278.537 79.7494 279.4 78.3942 280.234 77.0835L280.614 76.4855C281.084 75.7415 281.333 74.8822 281.333 74.0002C281.333 72.6722 280.764 71.4029 279.773 70.5176C278.782 69.633 277.45 69.209 276.121 69.365C274.046 69.601 272.333 71.2716 272.046 73.3369C271.876 74.5609 272.182 75.7762 272.907 76.7602C274.037 78.2922 274.92 79.9968 275.798 81.7554ZM276.666 72.0003C277.769 72.0003 278.666 72.8976 278.666 74.0002C278.666 75.1029 277.769 76.0002 276.666 76.0002C275.564 76.0002 274.666 75.1029 274.666 74.0002C274.666 72.8976 275.564 72.0003 276.666 72.0003Z" fill="white"/>
<path d="M289.579 80.5V70.63H290.545L294.339 77.756L298.105 70.63H299.071V80.5H298.007V72.786L294.717 78.974H293.961L290.629 72.8V80.5H289.579ZM304.272 80.626C303.609 80.626 303.035 80.4813 302.55 80.192C302.064 79.9027 301.686 79.4967 301.416 78.974C301.154 78.442 301.024 77.8167 301.024 77.098C301.024 76.3793 301.154 75.7587 301.416 75.236C301.686 74.704 302.064 74.2933 302.55 74.004C303.035 73.7147 303.609 73.57 304.272 73.57C304.925 73.57 305.494 73.7147 305.98 74.004C306.474 74.2933 306.852 74.704 307.114 75.236C307.384 75.7587 307.52 76.3793 307.52 77.098C307.52 77.8167 307.384 78.442 307.114 78.974C306.852 79.4967 306.474 79.9027 305.98 80.192C305.494 80.4813 304.925 80.626 304.272 80.626ZM304.272 79.716C304.906 79.716 305.415 79.492 305.798 79.044C306.18 78.5867 306.372 77.938 306.372 77.098C306.372 76.2487 306.18 75.6 305.798 75.152C305.415 74.704 304.906 74.48 304.272 74.48C303.628 74.48 303.114 74.704 302.732 75.152C302.358 75.6 302.172 76.2487 302.172 77.098C302.172 77.938 302.358 78.5867 302.732 79.044C303.114 79.492 303.628 79.716 304.272 79.716ZM312.257 80.626C311.576 80.626 310.988 80.4813 310.493 80.192C309.999 79.8933 309.616 79.478 309.345 78.946C309.084 78.4047 308.953 77.7747 308.953 77.056C308.953 75.9733 309.247 75.124 309.835 74.508C310.423 73.8827 311.231 73.57 312.257 73.57C312.677 73.57 313.093 73.6447 313.503 73.794C313.914 73.9433 314.255 74.1533 314.525 74.424L314.133 75.25C313.863 74.9887 313.564 74.7973 313.237 74.676C312.92 74.5547 312.617 74.494 312.327 74.494C311.618 74.494 311.072 74.718 310.689 75.166C310.307 75.6047 310.115 76.2393 310.115 77.07C310.115 77.882 310.307 78.526 310.689 79.002C311.072 79.4687 311.618 79.702 312.327 79.702C312.617 79.702 312.92 79.6413 313.237 79.52C313.564 79.3987 313.863 79.2027 314.133 78.932L314.525 79.758C314.255 80.0287 313.909 80.2433 313.489 80.402C313.079 80.5513 312.668 80.626 312.257 80.626ZM315.976 80.5V73.696H317.11V76.538H318.384L320.61 73.696H321.856L319.49 76.762C319.733 76.8553 319.952 77.0093 320.148 77.224C320.344 77.4387 320.564 77.7467 320.806 78.148L322.206 80.5H320.988L319.756 78.442C319.523 78.0407 319.299 77.7747 319.084 77.644C318.87 77.5133 318.566 77.448 318.174 77.448H317.11V80.5H315.976ZM323.346 80.5V73.696H326.664C327.466 73.696 328.059 73.85 328.442 74.158C328.824 74.4567 329.016 74.9 329.016 75.488C329.016 75.8427 328.913 76.1507 328.708 76.412C328.512 76.6733 328.241 76.8647 327.896 76.986C328.316 77.0887 328.642 77.2847 328.876 77.574C329.118 77.8633 329.24 78.2133 329.24 78.624C329.24 79.2027 329.025 79.66 328.596 79.996C328.166 80.332 327.56 80.5 326.776 80.5H323.346ZM324.424 76.65H326.608C327.037 76.65 327.368 76.5567 327.602 76.37C327.835 76.174 327.952 75.8987 327.952 75.544C327.952 75.1987 327.835 74.9327 327.602 74.746C327.368 74.5593 327.037 74.466 326.608 74.466H324.424V76.65ZM324.424 79.73H326.734C327.2 79.73 327.555 79.632 327.798 79.436C328.04 79.24 328.162 78.9507 328.162 78.568C328.162 78.1947 328.04 77.91 327.798 77.714C327.555 77.518 327.2 77.42 326.734 77.42H324.424V79.73ZM333.158 80.626C332.691 80.626 332.271 80.5373 331.898 80.36C331.534 80.1733 331.245 79.9213 331.03 79.604C330.815 79.2867 330.708 78.932 330.708 78.54C330.708 78.0453 330.834 77.6533 331.086 77.364C331.347 77.0747 331.772 76.8693 332.36 76.748C332.957 76.6173 333.769 76.552 334.796 76.552H335.244V76.118C335.244 75.5393 335.123 75.124 334.88 74.872C334.647 74.6107 334.269 74.48 333.746 74.48C333.335 74.48 332.939 74.5407 332.556 74.662C332.173 74.774 331.781 74.9607 331.38 75.222L330.988 74.396C331.343 74.144 331.772 73.9433 332.276 73.794C332.789 73.6447 333.279 73.57 333.746 73.57C334.623 73.57 335.272 73.7847 335.692 74.214C336.121 74.6433 336.336 75.3107 336.336 76.216V80.5H335.272V79.324C335.095 79.7253 334.819 80.0427 334.446 80.276C334.082 80.5093 333.653 80.626 333.158 80.626ZM333.34 79.772C333.9 79.772 334.357 79.5807 334.712 79.198C335.067 78.806 335.244 78.3113 335.244 77.714V77.294H334.81C334.054 77.294 333.457 77.3313 333.018 77.406C332.589 77.4713 332.285 77.5927 332.108 77.77C331.94 77.938 331.856 78.1713 331.856 78.47C331.856 78.8527 331.987 79.1653 332.248 79.408C332.519 79.6507 332.883 79.772 333.34 79.772Z" fill="white"/>
<path d="M497.312 80V68.72H498.976V73.584H505.296V68.72H506.944V80H505.296V74.976H498.976V80H497.312ZM512.89 80.144C512.1 80.144 511.418 79.9787 510.842 79.648C510.266 79.3173 509.818 78.8533 509.498 78.256C509.188 77.648 509.034 76.928 509.034 76.096C509.034 75.264 509.188 74.5493 509.498 73.952C509.818 73.344 510.266 72.8747 510.842 72.544C511.418 72.2133 512.1 72.048 512.89 72.048C513.658 72.048 514.33 72.2133 514.906 72.544C515.482 72.8747 515.93 73.344 516.25 73.952C516.57 74.5493 516.73 75.264 516.73 76.096C516.73 76.928 516.57 77.648 516.25 78.256C515.93 78.8533 515.482 79.3173 514.906 79.648C514.33 79.9787 513.658 80.144 512.89 80.144ZM512.89 78.896C513.551 78.896 514.084 78.656 514.49 78.176C514.895 77.696 515.098 77.0027 515.098 76.096C515.098 75.1893 514.895 74.5013 514.49 74.032C514.084 73.552 513.551 73.312 512.89 73.312C512.218 73.312 511.679 73.552 511.274 74.032C510.868 74.5013 510.666 75.1893 510.666 76.096C510.666 77.0027 510.868 77.696 511.274 78.176C511.679 78.656 512.218 78.896 512.89 78.896ZM518.716 80V72.192H522.7C523.66 72.192 524.359 72.3733 524.796 72.736C525.244 73.088 525.468 73.5893 525.468 74.24C525.468 74.6453 525.351 75.0027 525.116 75.312C524.892 75.6107 524.583 75.8293 524.188 75.968C524.679 76.0853 525.057 76.3093 525.324 76.64C525.591 76.9707 525.724 77.3653 525.724 77.824C525.724 78.496 525.473 79.0293 524.972 79.424C524.471 79.808 523.756 80 522.828 80H518.716ZM520.236 75.504H522.588C523.025 75.504 523.361 75.4027 523.596 75.2C523.841 74.9973 523.964 74.72 523.964 74.368C523.964 74.0053 523.841 73.728 523.596 73.536C523.361 73.344 523.025 73.248 522.588 73.248H520.236V75.504ZM520.236 78.96H522.732C523.735 78.96 524.236 78.5547 524.236 77.744C524.236 76.944 523.735 76.544 522.732 76.544H520.236V78.96ZM527.607 80V72.192H529.223V74.896H531.447C532.449 74.896 533.212 75.1147 533.735 75.552C534.257 75.9787 534.519 76.6027 534.519 77.424C534.519 78.2133 534.247 78.8427 533.703 79.312C533.159 79.7707 532.407 80 531.447 80H527.607ZM535.575 80V72.192H537.191V80H535.575ZM529.223 78.896H531.239C531.793 78.896 532.225 78.7787 532.535 78.544C532.844 78.2987 532.999 77.9253 532.999 77.424C532.999 76.9333 532.844 76.576 532.535 76.352C532.225 76.1173 531.793 76 531.239 76H529.223V78.896ZM543.302 80.144C542.022 80.144 541.014 79.7867 540.278 79.072C539.542 78.3467 539.174 77.36 539.174 76.112C539.174 75.312 539.334 74.608 539.654 74C539.985 73.3813 540.438 72.9013 541.014 72.56C541.59 72.2187 542.252 72.048 542.998 72.048C544.076 72.048 544.924 72.3947 545.542 73.088C546.161 73.7707 546.47 74.7147 546.47 75.92V76.464H540.742C540.86 78.0853 541.718 78.896 543.318 78.896C543.766 78.896 544.204 78.8267 544.63 78.688C545.068 78.5493 545.478 78.32 545.862 78L546.342 79.12C545.99 79.44 545.537 79.6907 544.982 79.872C544.428 80.0533 543.868 80.144 543.302 80.144ZM543.062 73.184C542.39 73.184 541.857 73.392 541.462 73.808C541.068 74.224 540.828 74.7787 540.742 75.472H545.11C545.078 74.7467 544.886 74.1867 544.534 73.792C544.182 73.3867 543.692 73.184 543.062 73.184ZM555.103 80.144C554.559 80.144 554.074 80.0373 553.647 79.824C553.22 79.6107 552.879 79.3227 552.623 78.96C552.378 78.5973 552.255 78.1867 552.255 77.728C552.255 77.152 552.399 76.6987 552.687 76.368C552.986 76.0373 553.471 75.7973 554.143 75.648C554.826 75.4987 555.743 75.424 556.895 75.424H557.439V75.008C557.439 74.4 557.311 73.9627 557.055 73.696C556.799 73.4293 556.378 73.296 555.791 73.296C555.343 73.296 554.895 73.3653 554.447 73.504C553.999 73.632 553.54 73.84 553.071 74.128L552.575 72.992C552.98 72.704 553.487 72.4747 554.095 72.304C554.703 72.1333 555.284 72.048 555.839 72.048C556.906 72.048 557.695 72.304 558.207 72.816C558.719 73.3173 558.975 74.1067 558.975 75.184V80H557.455V78.704C557.263 79.152 556.964 79.504 556.559 79.76C556.154 80.016 555.668 80.144 555.103 80.144ZM555.423 78.992C555.999 78.992 556.479 78.7893 556.863 78.384C557.247 77.9787 557.439 77.4667 557.439 76.848V76.416H556.911C556.132 76.416 555.519 76.4533 555.071 76.528C554.634 76.6027 554.319 76.7307 554.127 76.912C553.946 77.0827 553.855 77.3227 553.855 77.632C553.855 78.0373 553.994 78.368 554.271 78.624C554.548 78.8693 554.932 78.992 555.423 78.992ZM561.372 80V72.192H565.356C566.316 72.192 567.015 72.3733 567.452 72.736C567.9 73.088 568.124 73.5893 568.124 74.24C568.124 74.6453 568.007 75.0027 567.772 75.312C567.548 75.6107 567.239 75.8293 566.844 75.968C567.335 76.0853 567.714 76.3093 567.98 76.64C568.247 76.9707 568.38 77.3653 568.38 77.824C568.38 78.496 568.13 79.0293 567.628 79.424C567.127 79.808 566.412 80 565.484 80H561.372ZM562.892 75.504H565.244C565.682 75.504 566.018 75.4027 566.252 75.2C566.498 74.9973 566.62 74.72 566.62 74.368C566.62 74.0053 566.498 73.728 566.252 73.536C566.018 73.344 565.682 73.248 565.244 73.248H562.892V75.504ZM562.892 78.96H565.388C566.391 78.96 566.892 78.5547 566.892 77.744C566.892 76.944 566.391 76.544 565.388 76.544H562.892V78.96ZM572.051 80V73.488H569.299V72.192H576.435V73.488H573.667V80H572.051ZM581.093 80.144C580.303 80.144 579.621 79.9787 579.045 79.648C578.469 79.3173 578.021 78.8533 577.701 78.256C577.391 77.648 577.237 76.928 577.237 76.096C577.237 75.264 577.391 74.5493 577.701 73.952C578.021 73.344 578.469 72.8747 579.045 72.544C579.621 72.2133 580.303 72.048 581.093 72.048C581.861 72.048 582.533 72.2133 583.109 72.544C583.685 72.8747 584.133 73.344 584.453 73.952C584.773 74.5493 584.933 75.264 584.933 76.096C584.933 76.928 584.773 77.648 584.453 78.256C584.133 78.8533 583.685 79.3173 583.109 79.648C582.533 79.9787 581.861 80.144 581.093 80.144ZM581.093 78.896C581.754 78.896 582.287 78.656 582.693 78.176C583.098 77.696 583.301 77.0027 583.301 76.096C583.301 75.1893 583.098 74.5013 582.693 74.032C582.287 73.552 581.754 73.312 581.093 73.312C580.421 73.312 579.882 73.552 579.477 74.032C579.071 74.5013 578.869 75.1893 578.869 76.096C578.869 77.0027 579.071 77.696 579.477 78.176C579.882 78.656 580.421 78.896 581.093 78.896ZM586.919 80V72.192H588.247L591.079 77.136L593.895 72.192H595.223V80H593.799V74.704L591.463 78.736H590.679L588.343 74.704V80H586.919ZM601.062 80.144C600.272 80.144 599.59 79.9787 599.014 79.648C598.438 79.3173 597.99 78.8533 597.67 78.256C597.36 77.648 597.206 76.928 597.206 76.096C597.206 75.264 597.36 74.5493 597.67 73.952C597.99 73.344 598.438 72.8747 599.014 72.544C599.59 72.2133 600.272 72.048 601.062 72.048C601.83 72.048 602.502 72.2133 603.078 72.544C603.654 72.8747 604.102 73.344 604.422 73.952C604.742 74.5493 604.902 75.264 604.902 76.096C604.902 76.928 604.742 77.648 604.422 78.256C604.102 78.8533 603.654 79.3173 603.078 79.648C602.502 79.9787 601.83 80.144 601.062 80.144ZM601.062 78.896C601.723 78.896 602.256 78.656 602.662 78.176C603.067 77.696 603.27 77.0027 603.27 76.096C603.27 75.1893 603.067 74.5013 602.662 74.032C602.256 73.552 601.723 73.312 601.062 73.312C600.39 73.312 599.851 73.552 599.446 74.032C599.04 74.5013 598.838 75.1893 598.838 76.096C598.838 77.0027 599.04 77.696 599.446 78.176C599.851 78.656 600.39 78.896 601.062 78.896ZM610.344 80.144C609.139 80.144 608.184 79.7653 607.48 79.008C606.787 78.2507 606.44 77.136 606.44 75.664V74.48C606.44 72.9227 606.771 71.7387 607.432 70.928C608.093 70.1067 609.08 69.5253 610.392 69.184L613.144 68.464L613.656 69.76L610.504 70.56C609.672 70.7733 609.043 71.1627 608.616 71.728C608.189 72.2933 607.976 72.992 607.976 73.824V73.888C608.221 73.376 608.579 72.9707 609.048 72.672C609.528 72.3733 610.099 72.224 610.76 72.224C611.421 72.224 612.003 72.384 612.504 72.704C613.016 73.0133 613.416 73.4613 613.704 74.048C613.992 74.6347 614.136 75.328 614.136 76.128C614.136 76.9493 613.976 77.664 613.656 78.272C613.347 78.8693 612.904 79.3333 612.328 79.664C611.763 79.984 611.101 80.144 610.344 80.144ZM610.28 78.896C610.984 78.896 611.528 78.6667 611.912 78.208C612.307 77.7387 612.504 77.0667 612.504 76.192C612.504 75.328 612.307 74.6613 611.912 74.192C611.517 73.712 610.973 73.472 610.28 73.472C609.597 73.472 609.059 73.7067 608.664 74.176C608.269 74.6347 608.072 75.2693 608.072 76.08C608.072 77.008 608.264 77.712 608.648 78.192C609.043 78.6613 609.587 78.896 610.28 78.896ZM616.122 80V72.192H617.594V77.856L621.818 72.192H623.178V80H621.706V74.352L617.482 80H616.122ZM625.271 80.208L624.727 78.928C625.196 78.736 625.564 78.4747 625.831 78.144C626.097 77.8027 626.289 77.3333 626.407 76.736C626.524 76.128 626.583 75.344 626.583 74.384V72.192H632.535V80H630.919V73.488H628.087V74.432C628.087 75.6053 627.991 76.5813 627.799 77.36C627.607 78.1387 627.303 78.7573 626.887 79.216C626.481 79.664 625.943 79.9947 625.271 80.208ZM634.966 80V72.192H636.438V77.856L640.662 72.192H642.022V80H640.55V74.352L636.326 80H634.966Z" fill="white"/>
<path d="M668.176 80L673.2 68.72H674.576L679.616 80H677.92L676.736 77.248H671.024L669.856 80H668.176ZM673.872 70.56L671.616 75.904H676.176L673.904 70.56H673.872ZM680.997 80V72.192H684.981C685.941 72.192 686.64 72.3733 687.077 72.736C687.525 73.088 687.749 73.5893 687.749 74.24C687.749 74.6453 687.632 75.0027 687.397 75.312C687.173 75.6107 686.864 75.8293 686.469 75.968C686.96 76.0853 687.339 76.3093 687.605 76.64C687.872 76.9707 688.005 77.3653 688.005 77.824C688.005 78.496 687.755 79.0293 687.253 79.424C686.752 79.808 686.037 80 685.109 80H680.997ZM682.517 75.504H684.869C685.307 75.504 685.643 75.4027 685.877 75.2C686.123 74.9973 686.245 74.72 686.245 74.368C686.245 74.0053 686.123 73.728 685.877 73.536C685.643 73.344 685.307 73.248 684.869 73.248H682.517V75.504ZM682.517 78.96H685.013C686.016 78.96 686.517 78.5547 686.517 77.744C686.517 76.944 686.016 76.544 685.013 76.544H682.517V78.96ZM691.676 80V73.488H688.924V72.192H696.06V73.488H693.292V80H691.676ZM700.718 80.144C699.928 80.144 699.246 79.9787 698.67 79.648C698.094 79.3173 697.646 78.8533 697.326 78.256C697.016 77.648 696.862 76.928 696.862 76.096C696.862 75.264 697.016 74.5493 697.326 73.952C697.646 73.344 698.094 72.8747 698.67 72.544C699.246 72.2133 699.928 72.048 700.718 72.048C701.486 72.048 702.158 72.2133 702.734 72.544C703.31 72.8747 703.758 73.344 704.078 73.952C704.398 74.5493 704.558 75.264 704.558 76.096C704.558 76.928 704.398 77.648 704.078 78.256C703.758 78.8533 703.31 79.3173 702.734 79.648C702.158 79.9787 701.486 80.144 700.718 80.144ZM700.718 78.896C701.379 78.896 701.912 78.656 702.318 78.176C702.723 77.696 702.926 77.0027 702.926 76.096C702.926 75.1893 702.723 74.5013 702.318 74.032C701.912 73.552 701.379 73.312 700.718 73.312C700.046 73.312 699.507 73.552 699.102 74.032C698.696 74.5013 698.494 75.1893 698.494 76.096C698.494 77.0027 698.696 77.696 699.102 78.176C699.507 78.656 700.046 78.896 700.718 78.896ZM706.544 80V72.192H707.872L710.704 77.136L713.52 72.192H714.848V80H713.424V74.704L711.088 78.736H710.304L707.968 74.704V80H706.544ZM720.687 80.144C719.897 80.144 719.215 79.9787 718.639 79.648C718.063 79.3173 717.615 78.8533 717.295 78.256C716.985 77.648 716.831 76.928 716.831 76.096C716.831 75.264 716.985 74.5493 717.295 73.952C717.615 73.344 718.063 72.8747 718.639 72.544C719.215 72.2133 719.897 72.048 720.687 72.048C721.455 72.048 722.127 72.2133 722.703 72.544C723.279 72.8747 723.727 73.344 724.047 73.952C724.367 74.5493 724.527 75.264 724.527 76.096C724.527 76.928 724.367 77.648 724.047 78.256C723.727 78.8533 723.279 79.3173 722.703 79.648C722.127 79.9787 721.455 80.144 720.687 80.144ZM720.687 78.896C721.348 78.896 721.881 78.656 722.287 78.176C722.692 77.696 722.895 77.0027 722.895 76.096C722.895 75.1893 722.692 74.5013 722.287 74.032C721.881 73.552 721.348 73.312 720.687 73.312C720.015 73.312 719.476 73.552 719.071 74.032C718.665 74.5013 718.463 75.1893 718.463 76.096C718.463 77.0027 718.665 77.696 719.071 78.176C719.476 78.656 720.015 78.896 720.687 78.896ZM729.969 80.144C728.764 80.144 727.809 79.7653 727.105 79.008C726.412 78.2507 726.065 77.136 726.065 75.664V74.48C726.065 72.9227 726.396 71.7387 727.057 70.928C727.718 70.1067 728.705 69.5253 730.017 69.184L732.769 68.464L733.281 69.76L730.129 70.56C729.297 70.7733 728.668 71.1627 728.241 71.728C727.814 72.2933 727.601 72.992 727.601 73.824V73.888C727.846 73.376 728.204 72.9707 728.673 72.672C729.153 72.3733 729.724 72.224 730.385 72.224C731.046 72.224 731.628 72.384 732.129 72.704C732.641 73.0133 733.041 73.4613 733.329 74.048C733.617 74.6347 733.761 75.328 733.761 76.128C733.761 76.9493 733.601 77.664 733.281 78.272C732.972 78.8693 732.529 79.3333 731.953 79.664C731.388 79.984 730.726 80.144 729.969 80.144ZM729.905 78.896C730.609 78.896 731.153 78.6667 731.537 78.208C731.932 77.7387 732.129 77.0667 732.129 76.192C732.129 75.328 731.932 74.6613 731.537 74.192C731.142 73.712 730.598 73.472 729.905 73.472C729.222 73.472 728.684 73.7067 728.289 74.176C727.894 74.6347 727.697 75.2693 727.697 76.08C727.697 77.008 727.889 77.712 728.273 78.192C728.668 78.6613 729.212 78.896 729.905 78.896ZM735.747 80V72.192H737.219V77.856L741.443 72.192H742.803V80H741.331V74.352L737.107 80H735.747ZM744.896 80.208L744.352 78.928C744.821 78.736 745.189 78.4747 745.456 78.144C745.722 77.8027 745.914 77.3333 746.032 76.736C746.149 76.128 746.208 75.344 746.208 74.384V72.192H752.16V80H750.544V73.488H747.712V74.432C747.712 75.6053 747.616 76.5813 747.424 77.36C747.232 78.1387 746.928 78.7573 746.512 79.216C746.106 79.664 745.568 79.9947 744.896 80.208ZM754.591 80V72.192H756.063V77.856L760.287 72.192H761.647V80H760.175V74.352L755.951 80H754.591ZM771.735 80.144C770.935 80.144 770.241 79.9787 769.655 79.648C769.079 79.3067 768.631 78.832 768.311 78.224C767.991 77.6053 767.831 76.88 767.831 76.048C767.831 74.8107 768.183 73.8347 768.887 73.12C769.591 72.4053 770.54 72.048 771.735 72.048C772.225 72.048 772.711 72.1333 773.191 72.304C773.671 72.4747 774.065 72.7093 774.375 73.008L773.863 74.144C773.564 73.8667 773.233 73.664 772.871 73.536C772.519 73.3973 772.183 73.328 771.863 73.328C771.105 73.328 770.519 73.568 770.103 74.048C769.697 74.5173 769.495 75.1893 769.495 76.064C769.495 76.9387 769.697 77.6267 770.103 78.128C770.519 78.6187 771.105 78.864 771.863 78.864C772.183 78.864 772.519 78.8 772.871 78.672C773.233 78.5333 773.564 78.3253 773.863 78.048L774.375 79.2C774.065 79.488 773.665 79.7173 773.175 79.888C772.695 80.0587 772.215 80.144 771.735 80.144ZM780.138 80V72.192H787.21V80H785.594V73.488H781.754V80H780.138ZM789.638 82.88V72.192H791.222V73.52C791.446 73.072 791.788 72.7147 792.246 72.448C792.705 72.1813 793.233 72.048 793.83 72.048C794.524 72.048 795.126 72.2133 795.638 72.544C796.161 72.8747 796.561 73.344 796.838 73.952C797.126 74.5493 797.27 75.264 797.27 76.096C797.27 76.928 797.126 77.648 796.838 78.256C796.561 78.864 796.161 79.3333 795.638 79.664C795.126 79.984 794.524 80.144 793.83 80.144C793.254 80.144 792.737 80.0213 792.278 79.776C791.83 79.52 791.489 79.1733 791.254 78.736V82.88H789.638ZM793.43 78.896C794.102 78.896 794.636 78.656 795.03 78.176C795.436 77.696 795.638 77.0027 795.638 76.096C795.638 75.1893 795.436 74.5013 795.03 74.032C794.636 73.552 794.102 73.312 793.43 73.312C792.758 73.312 792.22 73.552 791.814 74.032C791.42 74.5013 791.222 75.1893 791.222 76.096C791.222 77.0027 791.42 77.696 791.814 78.176C792.22 78.656 792.758 78.896 793.43 78.896ZM802.655 80.144C801.866 80.144 801.183 79.9787 800.607 79.648C800.031 79.3173 799.583 78.8533 799.263 78.256C798.954 77.648 798.799 76.928 798.799 76.096C798.799 75.264 798.954 74.5493 799.263 73.952C799.583 73.344 800.031 72.8747 800.607 72.544C801.183 72.2133 801.866 72.048 802.655 72.048C803.423 72.048 804.095 72.2133 804.671 72.544C805.247 72.8747 805.695 73.344 806.015 73.952C806.335 74.5493 806.495 75.264 806.495 76.096C806.495 76.928 806.335 77.648 806.015 78.256C805.695 78.8533 805.247 79.3173 804.671 79.648C804.095 79.9787 803.423 80.144 802.655 80.144ZM802.655 78.896C803.317 78.896 803.85 78.656 804.255 78.176C804.661 77.696 804.863 77.0027 804.863 76.096C804.863 75.1893 804.661 74.5013 804.255 74.032C803.85 73.552 803.317 73.312 802.655 73.312C801.983 73.312 801.445 73.552 801.039 74.032C800.634 74.5013 800.431 75.1893 800.431 76.096C800.431 77.0027 800.634 77.696 801.039 78.176C801.445 78.656 801.983 78.896 802.655 78.896ZM811.938 80.144C810.732 80.144 809.778 79.7653 809.074 79.008C808.38 78.2507 808.034 77.136 808.034 75.664V74.48C808.034 72.9227 808.364 71.7387 809.026 70.928C809.687 70.1067 810.674 69.5253 811.986 69.184L814.738 68.464L815.25 69.76L812.098 70.56C811.266 70.7733 810.636 71.1627 810.21 71.728C809.783 72.2933 809.57 72.992 809.57 73.824V73.888C809.815 73.376 810.172 72.9707 810.642 72.672C811.122 72.3733 811.692 72.224 812.354 72.224C813.015 72.224 813.596 72.384 814.098 72.704C814.61 73.0133 815.01 73.4613 815.298 74.048C815.586 74.6347 815.73 75.328 815.73 76.128C815.73 76.9493 815.57 77.664 815.25 78.272C814.94 78.8693 814.498 79.3333 813.922 79.664C813.356 79.984 812.695 80.144 811.938 80.144ZM811.874 78.896C812.578 78.896 813.122 78.6667 813.506 78.208C813.9 77.7387 814.098 77.0667 814.098 76.192C814.098 75.328 813.9 74.6613 813.506 74.192C813.111 73.712 812.567 73.472 811.874 73.472C811.191 73.472 810.652 73.7067 810.258 74.176C809.863 74.6347 809.666 75.2693 809.666 76.08C809.666 77.008 809.858 77.712 810.242 78.192C810.636 78.6613 811.18 78.896 811.874 78.896ZM821.396 80.144C820.116 80.144 819.108 79.7867 818.372 79.072C817.636 78.3467 817.268 77.36 817.268 76.112C817.268 75.312 817.428 74.608 817.748 74C818.079 73.3813 818.532 72.9013 819.108 72.56C819.684 72.2187 820.345 72.048 821.092 72.048C822.169 72.048 823.017 72.3947 823.636 73.088C824.255 73.7707 824.564 74.7147 824.564 75.92V76.464H818.836C818.953 78.0853 819.812 78.896 821.412 78.896C821.86 78.896 822.297 78.8267 822.724 78.688C823.161 78.5493 823.572 78.32 823.956 78L824.436 79.12C824.084 79.44 823.631 79.6907 823.076 79.872C822.521 80.0533 821.961 80.144 821.396 80.144ZM821.156 73.184C820.484 73.184 819.951 73.392 819.556 73.808C819.161 74.224 818.921 74.7787 818.836 75.472H823.204C823.172 74.7467 822.98 74.1867 822.628 73.792C822.276 73.3867 821.785 73.184 821.156 73.184ZM826.482 80V72.192H832.146V73.488H828.098V80H826.482ZM837.015 80.144C836.225 80.144 835.543 79.9787 834.967 79.648C834.391 79.3173 833.943 78.8533 833.623 78.256C833.313 77.648 833.159 76.928 833.159 76.096C833.159 75.264 833.313 74.5493 833.623 73.952C833.943 73.344 834.391 72.8747 834.967 72.544C835.543 72.2133 836.225 72.048 837.015 72.048C837.783 72.048 838.455 72.2133 839.031 72.544C839.607 72.8747 840.055 73.344 840.375 73.952C840.695 74.5493 840.855 75.264 840.855 76.096C840.855 76.928 840.695 77.648 840.375 78.256C840.055 78.8533 839.607 79.3173 839.031 79.648C838.455 79.9787 837.783 80.144 837.015 80.144ZM837.015 78.896C837.676 78.896 838.209 78.656 838.615 78.176C839.02 77.696 839.223 77.0027 839.223 76.096C839.223 75.1893 839.02 74.5013 838.615 74.032C838.209 73.552 837.676 73.312 837.015 73.312C836.343 73.312 835.804 73.552 835.399 74.032C834.993 74.5013 834.791 75.1893 834.791 76.096C834.791 77.0027 834.993 77.696 835.399 78.176C835.804 78.656 836.343 78.896 837.015 78.896ZM842.841 80V72.192H844.169L847.001 77.136L849.817 72.192H851.145V80H849.721V74.704L847.385 78.736H846.601L844.265 74.704V80H842.841Z" fill="white"/>
<path d="M877.24 82.576V78.656H878.36C878.893 77.984 879.288 77.0773 879.544 75.936C879.8 74.784 879.928 73.3547 879.928 71.648V68.72H887.64V78.656H889.24V82.576H887.768V80H878.728V82.576H877.24ZM880.056 78.656H885.992V70.064H881.48V71.776C881.48 73.4187 881.363 74.7947 881.128 75.904C880.893 77.0027 880.536 77.92 880.056 78.656ZM890.489 80.208L889.945 78.928C890.415 78.736 890.783 78.4747 891.049 78.144C891.316 77.8027 891.508 77.3333 891.625 76.736C891.743 76.128 891.801 75.344 891.801 74.384V72.192H897.753V80H896.137V73.488H893.305V74.432C893.305 75.6053 893.209 76.5813 893.017 77.36C892.825 78.1387 892.521 78.7573 892.105 79.216C891.7 79.664 891.161 79.9947 890.489 80.208ZM899.529 80L900.713 77.952C901.022 77.3973 901.427 77.0293 901.929 76.848C901.267 76.7413 900.761 76.496 900.409 76.112C900.057 75.7173 899.881 75.2053 899.881 74.576C899.881 73.8507 900.126 73.2747 900.617 72.848C901.107 72.4107 901.838 72.192 902.809 72.192H906.537V80H905.033V77.152H904.025C903.651 77.152 903.331 77.2533 903.065 77.456C902.798 77.648 902.579 77.888 902.409 78.176L901.369 80H899.529ZM903.145 76.048H905.033V73.296H903.145C902.558 73.296 902.126 73.4187 901.849 73.664C901.571 73.8987 901.433 74.2293 901.433 74.656C901.433 75.0933 901.571 75.4347 901.849 75.68C902.126 75.9253 902.558 76.048 903.145 76.048ZM916.625 80.144C915.42 80.144 914.465 79.7653 913.761 79.008C913.068 78.2507 912.721 77.136 912.721 75.664V74.48C912.721 72.9227 913.052 71.7387 913.713 70.928C914.374 70.1067 915.361 69.5253 916.673 69.184L919.425 68.464L919.937 69.76L916.785 70.56C915.953 70.7733 915.324 71.1627 914.897 71.728C914.47 72.2933 914.257 72.992 914.257 73.824V73.888C914.502 73.376 914.86 72.9707 915.329 72.672C915.809 72.3733 916.38 72.224 917.041 72.224C917.702 72.224 918.284 72.384 918.785 72.704C919.297 73.0133 919.697 73.4613 919.985 74.048C920.273 74.6347 920.417 75.328 920.417 76.128C920.417 76.9493 920.257 77.664 919.937 78.272C919.628 78.8693 919.185 79.3333 918.609 79.664C918.044 79.984 917.382 80.144 916.625 80.144ZM916.561 78.896C917.265 78.896 917.809 78.6667 918.193 78.208C918.588 77.7387 918.785 77.0667 918.785 76.192C918.785 75.328 918.588 74.6613 918.193 74.192C917.798 73.712 917.254 73.472 916.561 73.472C915.878 73.472 915.34 73.7067 914.945 74.176C914.55 74.6347 914.353 75.2693 914.353 76.08C914.353 77.008 914.545 77.712 914.929 78.192C915.324 78.6613 915.868 78.896 916.561 78.896ZM922.404 80V72.192H923.876V77.856L928.1 72.192H929.46V80H927.988V74.352L923.764 80H922.404ZM934.608 80.144C933.925 80.144 933.28 80.064 932.672 79.904C932.064 79.7333 931.568 79.488 931.184 79.168L931.648 78.08C932.021 78.368 932.464 78.5867 932.976 78.736C933.499 78.8747 934.032 78.944 934.576 78.944C935.291 78.944 935.808 78.848 936.128 78.656C936.448 78.464 936.608 78.1707 936.608 77.776C936.608 77.0187 936.117 76.64 935.136 76.64H933.184V75.456H934.96C935.387 75.456 935.723 75.3653 935.968 75.184C936.213 74.992 936.336 74.7253 936.336 74.384C936.336 74.032 936.192 73.7547 935.904 73.552C935.627 73.3493 935.163 73.248 934.512 73.248C933.979 73.248 933.488 73.3173 933.04 73.456C932.592 73.584 932.165 73.7813 931.76 74.048L931.296 72.976C932.192 72.3573 933.344 72.048 934.752 72.048C935.765 72.048 936.528 72.2453 937.04 72.64C937.563 73.024 937.824 73.5573 937.824 74.24C937.824 74.6453 937.712 75.0027 937.488 75.312C937.264 75.6107 936.955 75.8293 936.56 75.968C937.04 76.0747 937.419 76.2933 937.696 76.624C937.973 76.944 938.112 77.344 938.112 77.824C938.112 78.5387 937.813 79.104 937.216 79.52C936.619 79.936 935.749 80.144 934.608 80.144ZM939.997 80V72.192H941.613V75.344H945.501V72.192H947.117V80H945.501V76.624H941.613V80H939.997ZM953.209 80.144C951.929 80.144 950.921 79.7867 950.185 79.072C949.449 78.3467 949.081 77.36 949.081 76.112C949.081 75.312 949.241 74.608 949.561 74C949.891 73.3813 950.345 72.9013 950.921 72.56C951.497 72.2187 952.158 72.048 952.905 72.048C953.982 72.048 954.83 72.3947 955.449 73.088C956.067 73.7707 956.377 74.7147 956.377 75.92V76.464H950.649C950.766 78.0853 951.625 78.896 953.225 78.896C953.673 78.896 954.11 78.8267 954.537 78.688C954.974 78.5493 955.385 78.32 955.769 78L956.249 79.12C955.897 79.44 955.443 79.6907 954.889 79.872C954.334 80.0533 953.774 80.144 953.209 80.144ZM952.969 73.184C952.297 73.184 951.763 73.392 951.369 73.808C950.974 74.224 950.734 74.7787 950.649 75.472H955.017C954.985 74.7467 954.793 74.1867 954.441 73.792C954.089 73.3867 953.598 73.184 952.969 73.184ZM961.75 80.144C960.95 80.144 960.257 79.9787 959.67 79.648C959.094 79.3067 958.646 78.832 958.326 78.224C958.006 77.6053 957.846 76.88 957.846 76.048C957.846 74.8107 958.198 73.8347 958.902 73.12C959.606 72.4053 960.555 72.048 961.75 72.048C962.241 72.048 962.726 72.1333 963.206 72.304C963.686 72.4747 964.081 72.7093 964.39 73.008L963.878 74.144C963.579 73.8667 963.249 73.664 962.886 73.536C962.534 73.3973 962.198 73.328 961.878 73.328C961.121 73.328 960.534 73.568 960.118 74.048C959.713 74.5173 959.51 75.1893 959.51 76.064C959.51 76.9387 959.713 77.6267 960.118 78.128C960.534 78.6187 961.121 78.864 961.878 78.864C962.198 78.864 962.534 78.8 962.886 78.672C963.249 78.5333 963.579 78.3253 963.878 78.048L964.39 79.2C964.081 79.488 963.681 79.7173 963.19 79.888C962.71 80.0587 962.23 80.144 961.75 80.144ZM968.462 80.144C967.918 80.144 967.433 80.0373 967.006 79.824C966.58 79.6107 966.238 79.3227 965.982 78.96C965.737 78.5973 965.614 78.1867 965.614 77.728C965.614 77.152 965.758 76.6987 966.046 76.368C966.345 76.0373 966.83 75.7973 967.502 75.648C968.185 75.4987 969.102 75.424 970.254 75.424H970.798V75.008C970.798 74.4 970.67 73.9627 970.414 73.696C970.158 73.4293 969.737 73.296 969.15 73.296C968.702 73.296 968.254 73.3653 967.806 73.504C967.358 73.632 966.9 73.84 966.43 74.128L965.934 72.992C966.34 72.704 966.846 72.4747 967.454 72.304C968.062 72.1333 968.644 72.048 969.198 72.048C970.265 72.048 971.054 72.304 971.566 72.816C972.078 73.3173 972.334 74.1067 972.334 75.184V80H970.814V78.704C970.622 79.152 970.324 79.504 969.918 79.76C969.513 80.016 969.028 80.144 968.462 80.144ZM968.782 78.992C969.358 78.992 969.838 78.7893 970.222 78.384C970.606 77.9787 970.798 77.4667 970.798 76.848V76.416H970.27C969.492 76.416 968.878 76.4533 968.43 76.528C967.993 76.6027 967.678 76.7307 967.486 76.912C967.305 77.0827 967.214 77.3227 967.214 77.632C967.214 78.0373 967.353 78.368 967.63 78.624C967.908 78.8693 968.292 78.992 968.782 78.992Z" fill="white"/>
<path d="M1002.93 80.144C1001.98 80.144 1001.14 80.0213 1000.4 79.776C999.675 79.52 999.061 79.1733 998.56 78.736L999.12 77.472C999.6 77.888 1000.14 78.2027 1000.74 78.416C1001.34 78.6187 1002.04 78.72 1002.82 78.72C1003.79 78.72 1004.5 78.56 1004.94 78.24C1005.4 77.9093 1005.63 77.4187 1005.63 76.768C1005.63 75.552 1004.85 74.944 1003.28 74.944H1000.53V73.616H1003.02C1004.58 73.616 1005.36 73.024 1005.36 71.84C1005.36 71.2747 1005.15 70.8267 1004.74 70.496C1004.32 70.1547 1003.69 69.984 1002.83 69.984C1002.18 69.984 1001.56 70.0853 1000.96 70.288C1000.37 70.4907 999.84 70.7947 999.36 71.2L998.816 69.936C999.317 69.4987 999.936 69.1627 1000.67 68.928C1001.41 68.6933 1002.18 68.576 1002.99 68.576C1004.33 68.576 1005.33 68.8587 1006 69.424C1006.67 69.9893 1007.01 70.736 1007.01 71.664C1007.01 72.272 1006.85 72.7947 1006.53 73.232C1006.21 73.6693 1005.78 73.9893 1005.23 74.192C1005.87 74.3627 1006.37 74.6773 1006.74 75.136C1007.1 75.5947 1007.28 76.176 1007.28 76.88C1007.28 77.8827 1006.92 78.6773 1006.21 79.264C1005.5 79.8507 1004.41 80.144 1002.93 80.144ZM1011.92 80.144C1011.37 80.144 1010.89 80.0373 1010.46 79.824C1010.03 79.6107 1009.69 79.3227 1009.44 78.96C1009.19 78.5973 1009.07 78.1867 1009.07 77.728C1009.07 77.152 1009.21 76.6987 1009.5 76.368C1009.8 76.0373 1010.28 75.7973 1010.96 75.648C1011.64 75.4987 1012.56 75.424 1013.71 75.424H1014.25V75.008C1014.25 74.4 1014.12 73.9627 1013.87 73.696C1013.61 73.4293 1013.19 73.296 1012.6 73.296C1012.16 73.296 1011.71 73.3653 1011.26 73.504C1010.81 73.632 1010.35 73.84 1009.88 74.128L1009.39 72.992C1009.79 72.704 1010.3 72.4747 1010.91 72.304C1011.52 72.1333 1012.1 72.048 1012.65 72.048C1013.72 72.048 1014.51 72.304 1015.02 72.816C1015.53 73.3173 1015.79 74.1067 1015.79 75.184V80H1014.27V78.704C1014.08 79.152 1013.78 79.504 1013.37 79.76C1012.97 80.016 1012.48 80.144 1011.92 80.144ZM1012.24 78.992C1012.81 78.992 1013.29 78.7893 1013.68 78.384C1014.06 77.9787 1014.25 77.4667 1014.25 76.848V76.416H1013.72C1012.94 76.416 1012.33 76.4533 1011.88 76.528C1011.45 76.6027 1011.13 76.7307 1010.94 76.912C1010.76 77.0827 1010.67 77.3227 1010.67 77.632C1010.67 78.0373 1010.81 78.368 1011.08 78.624C1011.36 78.8693 1011.74 78.992 1012.24 78.992ZM1018.18 80V72.192H1025.26V80H1023.64V73.488H1019.8V80H1018.18ZM1027.67 80V72.192H1029.14V77.856L1033.37 72.192H1034.73V80H1033.25V74.352L1029.03 80H1027.67ZM1040.61 80.144C1039.81 80.144 1039.12 79.9787 1038.53 79.648C1037.95 79.3067 1037.51 78.832 1037.19 78.224C1036.87 77.6053 1036.71 76.88 1036.71 76.048C1036.71 74.8107 1037.06 73.8347 1037.76 73.12C1038.47 72.4053 1039.41 72.048 1040.61 72.048C1041.1 72.048 1041.59 72.1333 1042.07 72.304C1042.55 72.4747 1042.94 72.7093 1043.25 73.008L1042.74 74.144C1042.44 73.8667 1042.11 73.664 1041.75 73.536C1041.39 73.3973 1041.06 73.328 1040.74 73.328C1039.98 73.328 1039.39 73.568 1038.98 74.048C1038.57 74.5173 1038.37 75.1893 1038.37 76.064C1038.37 76.9387 1038.57 77.6267 1038.98 78.128C1039.39 78.6187 1039.98 78.864 1040.74 78.864C1041.06 78.864 1041.39 78.8 1041.75 78.672C1042.11 78.5333 1042.44 78.3253 1042.74 78.048L1043.25 79.2C1042.94 79.488 1042.54 79.7173 1042.05 79.888C1041.57 80.0587 1041.09 80.144 1040.61 80.144ZM1044.81 80V72.192H1046.43V74.896H1048.65C1049.65 74.896 1050.42 75.1147 1050.94 75.552C1051.46 75.9787 1051.72 76.6027 1051.72 77.424C1051.72 78.2133 1051.45 78.8427 1050.91 79.312C1050.36 79.7707 1049.61 80 1048.65 80H1044.81ZM1046.43 78.896H1048.44C1049 78.896 1049.43 78.7787 1049.74 78.544C1050.05 78.2987 1050.2 77.9253 1050.2 77.424C1050.2 76.9333 1050.05 76.576 1049.74 76.352C1049.43 76.1173 1049 76 1048.44 76H1046.43V78.896ZM1057.72 80V72.192H1059.33V75.344H1063.22V72.192H1064.84V80H1063.22V76.624H1059.33V80H1057.72ZM1069.76 80.144C1069.22 80.144 1068.73 80.0373 1068.3 79.824C1067.88 79.6107 1067.54 79.3227 1067.28 78.96C1067.03 78.5973 1066.91 78.1867 1066.91 77.728C1066.91 77.152 1067.06 76.6987 1067.34 76.368C1067.64 76.0373 1068.13 75.7973 1068.8 75.648C1069.48 75.4987 1070.4 75.424 1071.55 75.424H1072.1V75.008C1072.1 74.4 1071.97 73.9627 1071.71 73.696C1071.46 73.4293 1071.03 73.296 1070.45 73.296C1070 73.296 1069.55 73.3653 1069.1 73.504C1068.66 73.632 1068.2 73.84 1067.73 74.128L1067.23 72.992C1067.64 72.704 1068.14 72.4747 1068.75 72.304C1069.36 72.1333 1069.94 72.048 1070.5 72.048C1071.56 72.048 1072.35 72.304 1072.86 72.816C1073.38 73.3173 1073.63 74.1067 1073.63 75.184V80H1072.11V78.704C1071.92 79.152 1071.62 79.504 1071.22 79.76C1070.81 80.016 1070.32 80.144 1069.76 80.144ZM1070.08 78.992C1070.66 78.992 1071.14 78.7893 1071.52 78.384C1071.9 77.9787 1072.1 77.4667 1072.1 76.848V76.416H1071.57C1070.79 76.416 1070.18 76.4533 1069.73 76.528C1069.29 76.6027 1068.98 76.7307 1068.78 76.912C1068.6 77.0827 1068.51 77.3227 1068.51 77.632C1068.51 78.0373 1068.65 78.368 1068.93 78.624C1069.2 78.8693 1069.59 78.992 1070.08 78.992ZM1083.69 80.144C1082.89 80.144 1082.19 79.9787 1081.61 79.648C1081.03 79.3067 1080.58 78.832 1080.26 78.224C1079.94 77.6053 1079.78 76.88 1079.78 76.048C1079.78 74.8107 1080.14 73.8347 1080.84 73.12C1081.54 72.4053 1082.49 72.048 1083.69 72.048C1084.18 72.048 1084.66 72.1333 1085.14 72.304C1085.62 72.4747 1086.02 72.7093 1086.33 73.008L1085.82 74.144C1085.52 73.8667 1085.19 73.664 1084.82 73.536C1084.47 73.3973 1084.14 73.328 1083.82 73.328C1083.06 73.328 1082.47 73.568 1082.06 74.048C1081.65 74.5173 1081.45 75.1893 1081.45 76.064C1081.45 76.9387 1081.65 77.6267 1082.06 78.128C1082.47 78.6187 1083.06 78.864 1083.82 78.864C1084.14 78.864 1084.47 78.8 1084.82 78.672C1085.19 78.5333 1085.52 78.3253 1085.82 78.048L1086.33 79.2C1086.02 79.488 1085.62 79.7173 1085.13 79.888C1084.65 80.0587 1084.17 80.144 1083.69 80.144ZM1091.57 80.144C1090.29 80.144 1089.28 79.7867 1088.54 79.072C1087.81 78.3467 1087.44 77.36 1087.44 76.112C1087.44 75.312 1087.6 74.608 1087.92 74C1088.25 73.3813 1088.7 72.9013 1089.28 72.56C1089.86 72.2187 1090.52 72.048 1091.26 72.048C1092.34 72.048 1093.19 72.3947 1093.81 73.088C1094.43 73.7707 1094.74 74.7147 1094.74 75.92V76.464H1089.01C1089.13 78.0853 1089.98 78.896 1091.58 78.896C1092.03 78.896 1092.47 78.8267 1092.9 78.688C1093.33 78.5493 1093.74 78.32 1094.13 78L1094.61 79.12C1094.26 79.44 1093.8 79.6907 1093.25 79.872C1092.69 80.0533 1092.13 80.144 1091.57 80.144ZM1091.33 73.184C1090.66 73.184 1090.12 73.392 1089.73 73.808C1089.33 74.224 1089.09 74.7787 1089.01 75.472H1093.38C1093.34 74.7467 1093.15 74.1867 1092.8 73.792C1092.45 73.3867 1091.96 73.184 1091.33 73.184ZM1096.67 82.88V72.192H1098.25V73.52C1098.48 73.072 1098.82 72.7147 1099.28 72.448C1099.74 72.1813 1100.26 72.048 1100.86 72.048C1101.55 72.048 1102.16 72.2133 1102.67 72.544C1103.19 72.8747 1103.59 73.344 1103.87 73.952C1104.16 74.5493 1104.3 75.264 1104.3 76.096C1104.3 76.928 1104.16 77.648 1103.87 78.256C1103.59 78.864 1103.19 79.3333 1102.67 79.664C1102.16 79.984 1101.55 80.144 1100.86 80.144C1100.29 80.144 1099.77 80.0213 1099.31 79.776C1098.86 79.52 1098.52 79.1733 1098.29 78.736V82.88H1096.67ZM1100.46 78.896C1101.13 78.896 1101.67 78.656 1102.06 78.176C1102.47 77.696 1102.67 77.0027 1102.67 76.096C1102.67 75.1893 1102.47 74.5013 1102.06 74.032C1101.67 73.552 1101.13 73.312 1100.46 73.312C1099.79 73.312 1099.25 73.552 1098.85 74.032C1098.45 74.5013 1098.25 75.1893 1098.25 76.096C1098.25 77.0027 1098.45 77.696 1098.85 78.176C1099.25 78.656 1099.79 78.896 1100.46 78.896ZM1106.28 80V72.192H1110.26C1111.22 72.192 1111.92 72.3733 1112.36 72.736C1112.81 73.088 1113.03 73.5893 1113.03 74.24C1113.03 74.6453 1112.91 75.0027 1112.68 75.312C1112.45 75.6107 1112.15 75.8293 1111.75 75.968C1112.24 76.0853 1112.62 76.3093 1112.89 76.64C1113.15 76.9707 1113.29 77.3653 1113.29 77.824C1113.29 78.496 1113.04 79.0293 1112.53 79.424C1112.03 79.808 1111.32 80 1110.39 80H1106.28ZM1107.8 75.504H1110.15C1110.59 75.504 1110.92 75.4027 1111.16 75.2C1111.4 74.9973 1111.53 74.72 1111.53 74.368C1111.53 74.0053 1111.4 73.728 1111.16 73.536C1110.92 73.344 1110.59 73.248 1110.15 73.248H1107.8V75.504ZM1107.8 78.96H1110.29C1111.3 78.96 1111.8 78.5547 1111.8 77.744C1111.8 76.944 1111.3 76.544 1110.29 76.544H1107.8V78.96ZM1115.17 80V72.192H1116.64V77.856L1120.87 72.192H1122.23V80H1120.75V74.352L1116.53 80H1115.17ZM1128.11 80.144C1127.31 80.144 1126.62 79.9787 1126.03 79.648C1125.45 79.3067 1125.01 78.832 1124.69 78.224C1124.37 77.6053 1124.21 76.88 1124.21 76.048C1124.21 74.8107 1124.56 73.8347 1125.26 73.12C1125.97 72.4053 1126.91 72.048 1128.11 72.048C1128.6 72.048 1129.09 72.1333 1129.57 72.304C1130.05 72.4747 1130.44 72.7093 1130.75 73.008L1130.24 74.144C1129.94 73.8667 1129.61 73.664 1129.25 73.536C1128.89 73.3973 1128.56 73.328 1128.24 73.328C1127.48 73.328 1126.89 73.568 1126.48 74.048C1126.07 74.5173 1125.87 75.1893 1125.87 76.064C1125.87 76.9387 1126.07 77.6267 1126.48 78.128C1126.89 78.6187 1127.48 78.864 1128.24 78.864C1128.56 78.864 1128.89 78.8 1129.25 78.672C1129.61 78.5333 1129.94 78.3253 1130.24 78.048L1130.75 79.2C1130.44 79.488 1130.04 79.7173 1129.55 79.888C1129.07 80.0587 1128.59 80.144 1128.11 80.144Z" fill="white"/>
<path d="M1156.18 80L1161.2 68.72H1162.58L1167.62 80H1165.92L1164.74 77.248H1159.02L1157.86 80H1156.18ZM1161.87 70.56L1159.62 75.904H1164.18L1161.9 70.56H1161.87ZM1169 80V72.192H1170.61V75.36H1171.93L1174.34 72.192H1176.1L1173.46 75.696C1173.72 75.8133 1173.95 75.9947 1174.17 76.24C1174.39 76.4747 1174.62 76.8 1174.85 77.216L1176.47 80H1174.74L1173.38 77.664C1173.14 77.248 1172.9 76.9707 1172.66 76.832C1172.44 76.6933 1172.12 76.624 1171.72 76.624H1170.61V80H1169ZM1184.41 82.08V80H1177.65V72.192H1179.27V78.72H1182.92V72.192H1184.53V78.72H1185.78V82.08H1184.41ZM1187.4 80V72.192H1188.88V77.856L1193.1 72.192H1194.46V80H1192.99V74.352L1188.76 80H1187.4ZM1196.89 80V72.192H1198.36V77.856L1202.58 72.192H1203.94V80H1202.47V74.352L1198.25 80H1196.89Z" fill="white"/>
<path d="M1233.04 80L1234.78 76.608L1229.89 68.72H1231.66L1235.57 75.088L1238.83 68.72H1240.54L1234.77 80H1233.04ZM1244.06 80.144C1243.26 80.144 1242.57 79.9787 1241.98 79.648C1241.41 79.3067 1240.96 78.832 1240.64 78.224C1240.32 77.6053 1240.16 76.88 1240.16 76.048C1240.16 74.8107 1240.51 73.8347 1241.21 73.12C1241.92 72.4053 1242.87 72.048 1244.06 72.048C1244.55 72.048 1245.04 72.1333 1245.52 72.304C1246 72.4747 1246.39 72.7093 1246.7 73.008L1246.19 74.144C1245.89 73.8667 1245.56 73.664 1245.2 73.536C1244.85 73.3973 1244.51 73.328 1244.19 73.328C1243.43 73.328 1242.85 73.568 1242.43 74.048C1242.03 74.5173 1241.82 75.1893 1241.82 76.064C1241.82 76.9387 1242.03 77.6267 1242.43 78.128C1242.85 78.6187 1243.43 78.864 1244.19 78.864C1244.51 78.864 1244.85 78.8 1245.2 78.672C1245.56 78.5333 1245.89 78.3253 1246.19 78.048L1246.7 79.2C1246.39 79.488 1245.99 79.7173 1245.5 79.888C1245.02 80.0587 1244.54 80.144 1244.06 80.144ZM1247.93 80.208L1247.38 78.928C1247.85 78.736 1248.22 78.4747 1248.49 78.144C1248.75 77.8027 1248.95 77.3333 1249.06 76.736C1249.18 76.128 1249.24 75.344 1249.24 74.384V72.192H1255.19V80H1253.57V73.488H1250.74V74.432C1250.74 75.6053 1250.65 76.5813 1250.45 77.36C1250.26 78.1387 1249.96 78.7573 1249.54 79.216C1249.14 79.664 1248.6 79.9947 1247.93 80.208ZM1258.44 82.88L1259.83 79.792L1256.57 72.192H1258.29L1260.69 78.128L1263.13 72.192H1264.79L1260.13 82.88H1258.44ZM1266.12 80V72.192H1271.79V73.488H1267.74V80H1266.12ZM1273.25 80V72.192H1274.72V77.856L1278.94 72.192H1280.3V80H1278.83V74.352L1274.61 80H1273.25Z" fill="white"/>
<path d="M1307.31 80V68.72H1308.98V73.632H1310.78L1313.95 68.72H1315.79L1312.35 73.904C1312.8 74.0747 1313.19 74.3413 1313.54 74.704C1313.88 75.056 1314.18 75.4987 1314.45 76.032L1316.38 80H1314.59L1313.06 76.72C1312.77 76.112 1312.43 75.68 1312.05 75.424C1311.66 75.1573 1311.19 75.024 1310.62 75.024H1308.98V80H1307.31ZM1321.01 80.144C1320.23 80.144 1319.54 79.9787 1318.97 79.648C1318.39 79.3173 1317.94 78.8533 1317.62 78.256C1317.31 77.648 1317.16 76.928 1317.16 76.096C1317.16 75.264 1317.31 74.5493 1317.62 73.952C1317.94 73.344 1318.39 72.8747 1318.97 72.544C1319.54 72.2133 1320.23 72.048 1321.01 72.048C1321.78 72.048 1322.45 72.2133 1323.03 72.544C1323.61 72.8747 1324.05 73.344 1324.37 73.952C1324.69 74.5493 1324.85 75.264 1324.85 76.096C1324.85 76.928 1324.69 77.648 1324.37 78.256C1324.05 78.8533 1323.61 79.3173 1323.03 79.648C1322.45 79.9787 1321.78 80.144 1321.01 80.144ZM1321.01 78.896C1321.68 78.896 1322.21 78.656 1322.61 78.176C1323.02 77.696 1323.22 77.0027 1323.22 76.096C1323.22 75.1893 1323.02 74.5013 1322.61 74.032C1322.21 73.552 1321.68 73.312 1321.01 73.312C1320.34 73.312 1319.8 73.552 1319.4 74.032C1318.99 74.5013 1318.79 75.1893 1318.79 76.096C1318.79 77.0027 1318.99 77.696 1319.4 78.176C1319.8 78.656 1320.34 78.896 1321.01 78.896ZM1326.84 80V72.192H1328.46V75.344H1332.35V72.192H1333.96V80H1332.35V76.624H1328.46V80H1326.84ZM1338 80V73.488H1335.25V72.192H1342.39V73.488H1339.62V80H1338ZM1346.2 80.144C1345.65 80.144 1345.17 80.0373 1344.74 79.824C1344.31 79.6107 1343.97 79.3227 1343.72 78.96C1343.47 78.5973 1343.35 78.1867 1343.35 77.728C1343.35 77.152 1343.49 76.6987 1343.78 76.368C1344.08 76.0373 1344.56 75.7973 1345.24 75.648C1345.92 75.4987 1346.84 75.424 1347.99 75.424H1348.53V75.008C1348.53 74.4 1348.4 73.9627 1348.15 73.696C1347.89 73.4293 1347.47 73.296 1346.88 73.296C1346.44 73.296 1345.99 73.3653 1345.54 73.504C1345.09 73.632 1344.63 73.84 1344.16 74.128L1343.67 72.992C1344.07 72.704 1344.58 72.4747 1345.19 72.304C1345.8 72.1333 1346.38 72.048 1346.93 72.048C1348 72.048 1348.79 72.304 1349.3 72.816C1349.81 73.3173 1350.07 74.1067 1350.07 75.184V80H1348.55V78.704C1348.36 79.152 1348.06 79.504 1347.65 79.76C1347.25 80.016 1346.76 80.144 1346.2 80.144ZM1346.52 78.992C1347.09 78.992 1347.57 78.7893 1347.96 78.384C1348.34 77.9787 1348.53 77.4667 1348.53 76.848V76.416H1348C1347.23 76.416 1346.61 76.4533 1346.16 76.528C1345.73 76.6027 1345.41 76.7307 1345.22 76.912C1345.04 77.0827 1344.95 77.3227 1344.95 77.632C1344.95 78.0373 1345.09 78.368 1345.36 78.624C1345.64 78.8693 1346.03 78.992 1346.52 78.992ZM1352.47 80V72.192H1354.08V75.36H1355.39L1357.81 72.192H1359.57L1356.93 75.696C1357.19 75.8133 1357.42 75.9947 1357.63 76.24C1357.86 76.4747 1358.09 76.8 1358.32 77.216L1359.94 80H1358.21L1356.85 77.664C1356.6 77.248 1356.36 76.9707 1356.13 76.832C1355.91 76.6933 1355.59 76.624 1355.19 76.624H1354.08V80H1352.47ZM1362.75 80V73.488H1360V72.192H1367.14V73.488H1364.37V80H1362.75ZM1368.43 80V72.192H1370.05V74.896H1372.27C1373.28 74.896 1374.04 75.1147 1374.56 75.552C1375.09 75.9787 1375.35 76.6027 1375.35 77.424C1375.35 78.2133 1375.07 78.8427 1374.53 79.312C1373.99 79.7707 1373.23 80 1372.27 80H1368.43ZM1376.4 80V72.192H1378.02V80H1376.4ZM1370.05 78.896H1372.07C1372.62 78.896 1373.05 78.7787 1373.36 78.544C1373.67 78.2987 1373.83 77.9253 1373.83 77.424C1373.83 76.9333 1373.67 76.576 1373.36 76.352C1373.05 76.1173 1372.62 76 1372.07 76H1370.05V78.896Z" fill="white"/>
<g clip-path="url(#clip0_2004_141)">
<path d="M287.947 9.98254H290.329V14.6593H292.026L295.54 9.98254H298.261L294.066 15.4773L298.602 21.9079H295.659L292.142 16.88H290.329V21.9079H287.947V9.98254Z" fill="white"/>
<path d="M302.123 9.98254H307.222L310.395 21.9079H307.905L305.411 12.2032H303.938L301.441 21.9079H298.947L302.123 9.98254Z" fill="white"/>
<path d="M312.103 9.98244H314.483V14.7749H316.072C316.614 11.8519 318.905 9.74902 321.854 9.74902C325.142 9.74902 327.751 12.4596 327.751 15.944C327.751 19.4285 325.142 22.1412 321.854 22.1412C320.453 22.1382 319.099 21.6176 318.039 20.674C316.978 19.7303 316.28 18.4261 316.072 16.9976H314.483V21.9078H312.103V9.98244ZM321.854 19.9185C323.782 19.9185 325.256 18.3771 325.256 15.944C325.256 13.5111 323.782 11.9718 321.854 11.9718C319.927 11.9718 318.452 13.5152 318.452 15.9462C318.452 18.3771 319.927 19.9185 321.854 19.9185Z" fill="white"/>
<path d="M329.678 9.98254H332.061V14.1883C332.061 15.5909 332.855 16.411 334.329 16.411C335.069 16.4355 335.808 16.3163 336.505 16.0598C336.745 15.9863 336.968 15.8672 337.164 15.7086V9.98254H339.551V21.9079H337.164V17.8157C336.925 17.9879 336.666 18.1291 336.393 18.2363C335.66 18.515 334.884 18.6498 334.103 18.6337C331.268 18.6337 329.678 17.0209 329.678 14.428V9.98254Z" fill="white"/>
<path d="M347.257 9.74902C348.223 9.74878 349.165 10.059 349.952 10.6364C350.299 10.8813 350.611 11.1726 350.883 11.5028H350.997V9.98244H353.379V21.9078H350.999V20.2697H350.885C350.622 20.6276 350.308 20.943 349.954 21.2054C349.177 21.8103 348.231 22.1387 347.257 22.1412C344.197 22.1412 341.812 19.6851 341.812 15.944C341.812 12.2031 344.194 9.74902 347.257 9.74902ZM347.709 19.9185C349.637 19.9185 350.999 18.539 350.999 15.944C350.999 13.3491 349.637 11.9718 347.709 11.9718C345.647 11.9718 344.309 13.3513 344.309 15.9462C344.309 18.5411 345.647 19.9185 347.709 19.9185Z" fill="white"/>
<path d="M356.329 9.98254H362.112C364.38 9.98254 365.628 11.2443 365.628 12.9055C365.628 14.0264 365.173 14.6593 364.72 15.0336C364.454 15.2497 364.143 15.4014 363.813 15.4773V15.5699C364.22 15.6385 364.607 15.7986 364.947 16.0388C365.514 16.4363 366.081 17.1596 366.081 18.4928C366.081 20.3854 364.584 21.9079 362.226 21.9079H356.329V9.98254ZM361.885 14.6593C362.793 14.6593 363.246 14.2388 363.246 13.3724C363.246 12.6469 362.793 12.2032 361.885 12.2032H358.71V14.6593H361.885ZM362.112 19.6852C363.131 19.6852 363.7 19.1005 363.7 18.1669C363.7 17.3468 363.133 16.7622 362.112 16.7622H358.71V19.6852H362.112Z" fill="white"/>
<path d="M367.214 9.98254H377.307V12.2032H373.452V21.9079H371.07V12.2032H367.214V9.98254Z" fill="white"/>
<path d="M384.338 9.74928C385.527 9.74886 386.689 10.112 387.678 10.7928C388.667 11.4736 389.437 12.4414 389.893 13.5739C390.348 14.7064 390.467 15.9526 390.235 17.1549C390.003 18.3573 389.43 19.4616 388.59 20.3284C387.75 21.1953 386.678 21.7855 385.512 22.0246C384.345 22.2636 383.137 22.1407 382.039 21.6715C380.94 21.2021 380.001 20.4075 379.341 19.3881C378.68 18.3686 378.329 17.1702 378.329 15.9444C378.318 15.1279 378.467 14.3176 378.765 13.5613C379.064 12.8049 379.506 12.1178 380.066 11.5405C380.626 10.9631 381.292 10.5072 382.026 10.1996C382.76 9.89193 383.546 9.73883 384.338 9.74928ZM384.338 19.9188C386.402 19.9188 387.854 18.3773 387.854 15.9444C387.854 13.5113 386.402 11.972 384.338 11.972C382.273 11.972 380.823 13.5155 380.823 15.9464C380.823 18.3773 382.273 19.9188 384.338 19.9188Z" fill="white"/>
<path d="M279.235 14.001L276.949 14.7665L264.764 18.8461C264.207 19.0323 263.601 18.983 263.079 18.7089C262.558 18.4349 262.163 17.9586 261.982 17.3846L261.947 17.2752L264.046 16.5729L276.778 12.3103L279.021 11.5575C279.124 12.3693 279.196 13.1837 279.235 14.001Z" fill="white"/>
<path d="M279.272 17.0525C279.25 17.9083 279.195 18.7663 279.111 19.6201C279.034 20.4178 278.93 21.2119 278.801 22.0026L278.77 22.196C278.535 23.4975 277.925 24.6955 277.019 25.6334C276.112 26.5714 274.953 27.2056 273.692 27.4532H273.681L273.453 27.4932C269.604 28.1577 265.675 28.1577 261.827 27.4932L261.598 27.4532C260.337 27.2059 259.177 26.5717 258.271 25.6338C257.365 24.6958 256.754 23.4976 256.52 22.196C256.507 22.1309 256.497 22.0678 256.487 22.0026C255.838 18.0232 255.838 13.96 256.487 9.98053C256.487 9.91534 256.507 9.85016 256.52 9.78496C256.757 8.47925 257.372 7.27816 258.284 6.33977C259.196 5.40139 260.362 4.76969 261.629 4.5278C265.546 3.84678 269.544 3.83257 273.465 4.48574L273.655 4.51729C274.726 4.7215 275.728 5.20444 276.567 5.92026C277.406 6.63608 278.053 7.56104 278.448 8.60736L276.251 9.34336L264.764 13.1895C264.488 13.282 264.197 13.3176 263.908 13.2942C263.619 13.2708 263.337 13.1889 263.079 13.0532C262.821 12.9174 262.591 12.7305 262.403 12.5032C262.214 12.2758 262.071 12.0124 261.982 11.728L261.947 11.6187L264.046 10.9205L274.638 7.37297C274.157 7.08854 273.633 6.8895 273.088 6.78418C271.288 6.47186 269.465 6.3143 267.64 6.31313C265.76 6.3231 263.884 6.49048 262.031 6.81361C261.226 6.97409 260.486 7.38094 259.909 7.98113C259.331 8.5813 258.943 9.34695 258.794 10.1782L258.765 10.3464C258.159 14.0868 258.159 17.9048 258.765 21.6451L258.788 21.7839V21.8134C258.936 22.6429 259.323 23.4073 259.898 24.0073C260.473 24.6073 261.21 25.0152 262.012 25.178L262.163 25.2053H262.204C263.998 25.5169 265.814 25.6738 267.634 25.6742C269.454 25.6736 271.271 25.5168 273.065 25.2053H273.106L273.257 25.178C274.06 25.0152 274.797 24.6073 275.372 24.0073C275.947 23.4073 276.334 22.6429 276.482 21.8134L276.508 21.6451C276.574 21.2414 276.633 20.8398 276.684 20.436L267.795 23.4115C267.519 23.5036 267.227 23.5384 266.938 23.5142C266.648 23.49 266.366 23.4071 266.108 23.2704C265.849 23.1337 265.62 22.9458 265.432 22.7174C265.244 22.489 265.101 22.2247 265.013 21.9395L264.978 21.8302L267.077 21.1278L276.92 17.8284L279.272 17.0525Z" fill="white"/>
</g>
<path opacity="0.4" d="M1608.04 0.5H1608.1C1614.15 0.5 1617.92 1.43329 1620.22 3.73062C1622.52 6.02822 1623.47 9.81448 1623.5 15.8787C1623.48 22.0366 1622.53 25.8839 1620.21 28.2188C1617.9 30.5522 1614.09 31.5 1607.98 31.5C1601.9 31.5 1598.1 30.5524 1595.79 28.219C1593.47 25.8838 1592.52 22.036 1592.5 15.8786C1592.52 9.89334 1593.51 6.10444 1595.85 3.78675C1598.19 1.46798 1602.01 0.5 1608.04 0.5Z" stroke="white"/>
<path d="M684.073 4H684.029C674.951 4 672.036 6.89341 672 15.9089C672.036 25.1722 674.834 28 683.985 28C693.18 28 695.964 25.1722 696 15.9089C695.956 6.78409 693.173 4 684.073 4Z" fill="white"/>
<path d="M716.073 4H716.029C706.951 4 704.036 6.89341 704 15.9089C704.036 25.1722 706.834 28 715.985 28C725.18 28 727.964 25.1722 728 15.9089C727.956 6.78409 725.173 4 716.073 4Z" fill="white"/>
<path opacity="0.4" d="M1648.04 0.5H1648.1C1654.15 0.5 1657.92 1.43329 1660.22 3.73062C1662.52 6.02822 1663.47 9.81448 1663.5 15.8787C1663.48 22.0366 1662.53 25.8839 1660.21 28.2188C1657.9 30.5522 1654.09 31.5 1647.98 31.5C1641.9 31.5 1638.1 30.5524 1635.79 28.219C1633.47 25.8838 1632.52 22.036 1632.5 15.8786C1632.52 9.89334 1633.51 6.10444 1635.85 3.78675C1638.19 1.46798 1642.01 0.5 1648.04 0.5Z" stroke="white"/>
<path d="M1608.1 60H1608.04C1595.93 60 1592.05 63.8579 1592 75.8785C1592.05 88.2296 1595.78 92 1607.98 92C1620.24 92 1623.95 88.2296 1624 75.8785C1623.94 63.7121 1620.23 60 1608.1 60Z" fill="white"/>
<path d="M1602.5 76.3555V81.487" stroke="#222528" stroke-width="2" stroke-linecap="round"/>
<path d="M1607.83 69.5132V81.4869" stroke="#222528" stroke-width="2" stroke-linecap="round"/>
<path d="M1613.17 72.25V81.4868" stroke="#222528" stroke-width="2" stroke-linecap="round"/>
<path d="M1648.1 60H1648.04C1635.93 60 1632.05 63.8579 1632 75.8785C1632.05 88.2296 1635.78 92 1647.98 92C1660.24 92 1663.95 88.2296 1664 75.8785C1663.94 63.7121 1660.23 60 1648.1 60Z" fill="white"/>
<path d="M1646.6 20.1345C1649.69 20.1345 1652.2 17.6419 1652.2 14.5672C1652.2 11.4925 1649.69 9 1646.6 9C1643.51 9 1641 11.4925 1641 14.5672C1641 17.6419 1643.51 20.1345 1646.6 20.1345Z" stroke="white" stroke-width="2" stroke-miterlimit="10"/>
<path d="M1651 18L1655 22" stroke="white" stroke-width="2" stroke-miterlimit="10" stroke-linecap="round"/>
<path d="M1605.39 18.6077C1608.96 22.1762 1612.37 22.9313 1613.63 23C1614.43 21.8221 1614.77 20.8496 1615 19.9804C1614.13 19.1341 1612.87 18.2703 1611.71 17.7843L1610.33 19.157C1609.86 19.0312 1608.58 18.4994 1607.04 16.9608C1605.5 15.4227 1604.97 14.1358 1604.84 13.6668L1606.22 12.294C1605.73 11.1344 1604.87 9.86923 1604.02 9C1603.15 9.22866 1602.18 9.56835 1601 10.3727C1601.07 11.6302 1601.82 15.0388 1605.39 18.6077Z" fill="white"/>
<path d="M716.625 20C711.842 20 709.114 16.997 709 12H711.396C711.475 15.6677 713.241 17.2212 714.64 17.5415V12H716.896V15.1632C718.278 15.027 719.729 13.5856 720.219 12H722.475C722.099 13.954 720.525 15.3954 719.406 15.988C720.525 16.4685 722.318 17.7257 723 20H720.516C719.983 18.4785 718.654 17.3013 716.896 17.1411V20H716.625Z" fill="#222528"/>
<path d="M677.857 15.2257L686.198 11.6646C687.021 11.2937 689.813 10.1057 689.813 10.1057C689.813 10.1057 691.102 9.58662 690.993 10.8488C690.958 11.3679 690.673 13.1863 690.385 15.153L689.491 20.9775C689.491 20.9775 689.419 21.8303 688.811 21.9786C688.203 22.127 687.2 21.4595 687.021 21.3098C686.878 21.1985 684.338 19.5299 683.407 18.7141C683.155 18.4916 682.87 18.0453 683.442 17.5261C684.732 16.3025 686.27 14.7807 687.199 13.8167C687.629 13.3703 688.057 12.332 686.268 13.5942L681.223 17.1197C681.223 17.1197 680.65 17.4905 679.576 17.1553C678.503 16.823 677.251 16.3766 677.251 16.3766C677.251 16.3766 676.391 15.819 677.857 15.2257Z" fill="#222528"/>
<path d="M1648 81.6968C1652.71 78.3437 1654.59 76.7335 1654.94 74.4536C1655.13 73.2975 1654.91 71.7077 1653.61 70.7281C1652.16 69.6321 1649.33 69.6257 1648 71.738C1646.67 69.6257 1643.84 69.6321 1642.39 70.7281C1641.09 71.7077 1640.87 73.2975 1641.06 74.4536C1641.41 76.7335 1643.29 78.3437 1648 81.6968Z" stroke="#222528" stroke-width="2" stroke-miterlimit="10"/>
<defs>
<clipPath id="clip0_2004_141">
<rect width="135" height="24" fill="white" transform="translate(256 4)"/>
</clipPath>
</defs>
</svg>
