<svg width="1408" height="92" viewBox="0 0 1408 92" fill="none" xmlns="http://www.w3.org/2000/svg">
<path opacity="0.8" d="M241.246 20V10.13H242.212L246.006 17.256L249.772 10.13H250.738V20H249.674V12.286L246.384 18.474H245.628L242.296 12.3V20H241.246ZM253.097 20V13.196H254.231V15.618H256.289C257.157 15.618 257.815 15.8093 258.263 16.192C258.711 16.5653 258.935 17.0973 258.935 17.788C258.935 18.4693 258.701 19.0107 258.235 19.412C257.777 19.804 257.129 20 256.289 20H253.097ZM259.943 20V13.196H261.077V20H259.943ZM254.231 19.188H256.177C256.699 19.188 257.105 19.076 257.395 18.852C257.693 18.628 257.843 18.278 257.843 17.802C257.843 17.3353 257.698 16.99 257.409 16.766C257.119 16.542 256.709 16.43 256.177 16.43H254.231V19.188ZM266.919 20V13.196H270.237C271.039 13.196 271.632 13.35 272.015 13.658C272.397 13.9567 272.589 14.4 272.589 14.988C272.589 15.3427 272.486 15.6507 272.281 15.912C272.085 16.1733 271.814 16.3647 271.469 16.486C271.889 16.5887 272.215 16.7847 272.449 17.074C272.691 17.3633 272.813 17.7133 272.813 18.124C272.813 18.7027 272.598 19.16 272.169 19.496C271.739 19.832 271.133 20 270.349 20H266.919ZM267.997 16.15H270.181C270.61 16.15 270.941 16.0567 271.175 15.87C271.408 15.674 271.525 15.3987 271.525 15.044C271.525 14.6987 271.408 14.4327 271.175 14.246C270.941 14.0593 270.61 13.966 270.181 13.966H267.997V16.15ZM267.997 19.23H270.307C270.773 19.23 271.128 19.132 271.371 18.936C271.613 18.74 271.735 18.4507 271.735 18.068C271.735 17.6947 271.613 17.41 271.371 17.214C271.128 17.018 270.773 16.92 270.307 16.92H267.997V19.23ZM281.069 20.126C280.387 20.126 279.799 19.9813 279.305 19.692C278.81 19.3933 278.427 18.978 278.157 18.446C277.895 17.9047 277.765 17.2747 277.765 16.556C277.765 15.4733 278.059 14.624 278.647 14.008C279.235 13.3827 280.042 13.07 281.069 13.07C281.489 13.07 281.904 13.1447 282.315 13.294C282.725 13.4433 283.066 13.6533 283.337 13.924L282.945 14.75C282.674 14.4887 282.375 14.2973 282.049 14.176C281.731 14.0547 281.428 13.994 281.139 13.994C280.429 13.994 279.883 14.218 279.501 14.666C279.118 15.1047 278.927 15.7393 278.927 16.57C278.927 17.382 279.118 18.026 279.501 18.502C279.883 18.9687 280.429 19.202 281.139 19.202C281.428 19.202 281.731 19.1413 282.049 19.02C282.375 18.8987 282.674 18.7027 282.945 18.432L283.337 19.258C283.066 19.5287 282.721 19.7433 282.301 19.902C281.89 20.0513 281.479 20.126 281.069 20.126ZM287.63 20.126C286.967 20.126 286.393 19.9813 285.908 19.692C285.423 19.4027 285.045 18.9967 284.774 18.474C284.513 17.942 284.382 17.3167 284.382 16.598C284.382 15.8793 284.513 15.2587 284.774 14.736C285.045 14.204 285.423 13.7933 285.908 13.504C286.393 13.2147 286.967 13.07 287.63 13.07C288.283 13.07 288.853 13.2147 289.338 13.504C289.833 13.7933 290.211 14.204 290.472 14.736C290.743 15.2587 290.878 15.8793 290.878 16.598C290.878 17.3167 290.743 17.942 290.472 18.474C290.211 18.9967 289.833 19.4027 289.338 19.692C288.853 19.9813 288.283 20.126 287.63 20.126ZM287.63 19.216C288.265 19.216 288.773 18.992 289.156 18.544C289.539 18.0867 289.73 17.438 289.73 16.598C289.73 15.7487 289.539 15.1 289.156 14.652C288.773 14.204 288.265 13.98 287.63 13.98C286.986 13.98 286.473 14.204 286.09 14.652C285.717 15.1 285.53 15.7487 285.53 16.598C285.53 17.438 285.717 18.0867 286.09 18.544C286.473 18.992 286.986 19.216 287.63 19.216ZM298.598 21.82V20H292.718V13.196H293.852V19.09H297.366V13.196H298.5V19.09H299.578V21.82H298.598ZM301.085 20V13.196H302.121V18.46L306.055 13.196H307.021V20H305.985V14.736L302.051 20H301.085ZM311.417 20.126C310.95 20.126 310.53 20.0373 310.157 19.86C309.793 19.6733 309.503 19.4213 309.289 19.104C309.074 18.7867 308.967 18.432 308.967 18.04C308.967 17.5453 309.093 17.1533 309.345 16.864C309.606 16.5747 310.031 16.3693 310.619 16.248C311.216 16.1173 312.028 16.052 313.055 16.052H313.503V15.618C313.503 15.0393 313.381 14.624 313.139 14.372C312.905 14.1107 312.527 13.98 312.005 13.98C311.594 13.98 311.197 14.0407 310.815 14.162C310.432 14.274 310.04 14.4607 309.639 14.722L309.247 13.896C309.601 13.644 310.031 13.4433 310.535 13.294C311.048 13.1447 311.538 13.07 312.005 13.07C312.882 13.07 313.531 13.2847 313.951 13.714C314.38 14.1433 314.595 14.8107 314.595 15.716V20H313.531V18.824C313.353 19.2253 313.078 19.5427 312.705 19.776C312.341 20.0093 311.911 20.126 311.417 20.126ZM311.599 19.272C312.159 19.272 312.616 19.0807 312.971 18.698C313.325 18.306 313.503 17.8113 313.503 17.214V16.794H313.069C312.313 16.794 311.715 16.8313 311.277 16.906C310.847 16.9713 310.544 17.0927 310.367 17.27C310.199 17.438 310.115 17.6713 310.115 17.97C310.115 18.3527 310.245 18.6653 310.507 18.908C310.777 19.1507 311.141 19.272 311.599 19.272ZM316.43 20.154L316.01 19.258C316.43 19.0807 316.761 18.8333 317.004 18.516C317.246 18.1893 317.414 17.7413 317.508 17.172C317.61 16.6027 317.662 15.856 317.662 14.932V13.196H322.604V20H321.47V14.106H318.726V14.974C318.726 16.038 318.646 16.9153 318.488 17.606C318.338 18.2967 318.096 18.8427 317.76 19.244C317.424 19.6453 316.98 19.9487 316.43 20.154ZM324.847 20V13.196H325.981V15.618H328.039C328.907 15.618 329.565 15.8093 330.013 16.192C330.461 16.5653 330.685 17.0973 330.685 17.788C330.685 18.4693 330.451 19.0107 329.985 19.412C329.527 19.804 328.879 20 328.039 20H324.847ZM325.981 19.188H327.927C328.449 19.188 328.855 19.076 329.145 18.852C329.443 18.628 329.593 18.278 329.593 17.802C329.593 17.3353 329.448 16.99 329.159 16.766C328.869 16.542 328.459 16.43 327.927 16.43H325.981V19.188ZM332.366 20V13.196H333.5V16.024H337.21V13.196H338.344V20H337.21V16.948H333.5V20H332.366ZM340.583 20V13.196H341.717V15.618H343.775C344.643 15.618 345.301 15.8093 345.749 16.192C346.197 16.5653 346.421 17.0973 346.421 17.788C346.421 18.4693 346.188 19.0107 345.721 19.412C345.264 19.804 344.615 20 343.775 20H340.583ZM347.429 20V13.196H348.563V20H347.429ZM341.717 19.188H343.663C344.186 19.188 344.592 19.076 344.881 18.852C345.18 18.628 345.329 18.278 345.329 17.802C345.329 17.3353 345.184 16.99 344.895 16.766C344.606 16.542 344.195 16.43 343.663 16.43H341.717V19.188ZM349.955 20L352.783 16.486L350.123 13.196H351.467L353.441 15.702L355.429 13.196H356.759L354.099 16.486L356.927 20H355.583L353.427 17.298L351.299 20H349.955ZM364.795 20.126C364.114 20.126 363.526 19.9813 363.031 19.692C362.537 19.3933 362.154 18.978 361.883 18.446C361.622 17.9047 361.491 17.2747 361.491 16.556C361.491 15.4733 361.785 14.624 362.373 14.008C362.961 13.3827 363.769 13.07 364.795 13.07C365.215 13.07 365.631 13.1447 366.041 13.294C366.452 13.4433 366.793 13.6533 367.063 13.924L366.671 14.75C366.401 14.4887 366.102 14.2973 365.775 14.176C365.458 14.0547 365.155 13.994 364.865 13.994C364.156 13.994 363.61 14.218 363.227 14.666C362.845 15.1047 362.653 15.7393 362.653 16.57C362.653 17.382 362.845 18.026 363.227 18.502C363.61 18.9687 364.156 19.202 364.865 19.202C365.155 19.202 365.458 19.1413 365.775 19.02C366.102 18.8987 366.401 18.7027 366.671 18.432L367.063 19.258C366.793 19.5287 366.447 19.7433 366.027 19.902C365.617 20.0513 365.206 20.126 364.795 20.126ZM371.595 20.126C370.521 20.126 369.672 19.8133 369.047 19.188C368.421 18.5533 368.109 17.6947 368.109 16.612C368.109 15.912 368.249 15.296 368.529 14.764C368.809 14.2227 369.191 13.8073 369.677 13.518C370.171 13.2193 370.741 13.07 371.385 13.07C372.309 13.07 373.032 13.3687 373.555 13.966C374.077 14.554 374.339 15.366 374.339 16.402V16.836H369.215C369.252 17.6107 369.476 18.2033 369.887 18.614C370.297 19.0153 370.867 19.216 371.595 19.216C372.005 19.216 372.397 19.1553 372.771 19.034C373.144 18.9033 373.499 18.6933 373.835 18.404L374.227 19.202C373.919 19.4913 373.527 19.72 373.051 19.888C372.575 20.0467 372.089 20.126 371.595 20.126ZM371.413 13.91C370.769 13.91 370.26 14.1107 369.887 14.512C369.513 14.9133 369.294 15.4407 369.229 16.094H373.359C373.331 15.4033 373.149 14.8667 372.813 14.484C372.486 14.1013 372.019 13.91 371.413 13.91ZM377.516 20V14.106H375.052V13.196H381.128V14.106H378.65V20H377.516ZM381.763 20L382.813 18.18C383.093 17.6853 383.452 17.3633 383.891 17.214C383.312 17.13 382.864 16.92 382.547 16.584C382.23 16.2387 382.071 15.7907 382.071 15.24C382.071 14.6147 382.276 14.12 382.687 13.756C383.107 13.3827 383.732 13.196 384.563 13.196H387.629V20H386.551V17.41H385.557C385.184 17.41 384.866 17.5033 384.605 17.69C384.353 17.8767 384.148 18.1053 383.989 18.376L383.065 20H381.763ZM384.773 16.584H386.551V13.994H384.773C384.222 13.994 383.816 14.1107 383.555 14.344C383.294 14.568 383.163 14.8807 383.163 15.282C383.163 15.6927 383.294 16.0147 383.555 16.248C383.816 16.472 384.222 16.584 384.773 16.584ZM389.016 20L391.844 16.486L389.184 13.196H390.528L392.502 15.702L394.49 13.196H395.82L393.16 16.486L395.988 20H394.644L392.488 17.298L390.36 20H389.016ZM397.124 14.624V13.196H398.552V14.624H397.124ZM397.124 20V18.572H398.552V20H397.124Z" fill="white"/>
<rect opacity="0.3" y="44" width="1408" height="1" fill="white"/>
<path d="M1174.06 20.36V17.112H1170.9V15.704H1174.06V12.552H1175.54V15.704H1178.7V17.112H1175.54V20.36H1174.06ZM1180.97 21L1186.06 11.432H1180.47V9.72H1188.33V11.256L1183.23 21H1180.97ZM1197.31 24.12C1196.52 22.9467 1195.95 21.752 1195.61 20.536C1195.27 19.3093 1195.1 18.0613 1195.1 16.792C1195.1 15.512 1195.27 14.264 1195.61 13.048C1195.95 11.832 1196.52 10.6373 1197.31 9.464L1198.67 10.008C1198.17 11.2347 1197.8 12.3813 1197.58 13.448C1197.36 14.504 1197.24 15.6187 1197.24 16.792C1197.24 17.9547 1197.36 19.0693 1197.58 20.136C1197.8 21.2027 1198.17 22.3493 1198.67 23.576L1197.31 24.12ZM1204.03 21.16C1202.72 21.16 1201.69 20.8773 1200.95 20.312C1200.21 19.7467 1199.84 18.9627 1199.84 17.96C1199.84 17.2773 1200.02 16.696 1200.37 16.216C1200.73 15.736 1201.2 15.4 1201.78 15.208C1201.27 14.984 1200.86 14.6427 1200.56 14.184C1200.27 13.7253 1200.13 13.1973 1200.13 12.6C1200.13 11.6507 1200.48 10.9093 1201.19 10.376C1201.89 9.832 1202.84 9.56 1204.03 9.56C1205.24 9.56 1206.19 9.832 1206.9 10.376C1207.6 10.9093 1207.95 11.6507 1207.95 12.6C1207.95 13.1973 1207.81 13.7307 1207.51 14.2C1207.22 14.6587 1206.82 14.9947 1206.32 15.208C1206.9 15.4 1207.36 15.7413 1207.7 16.232C1208.05 16.712 1208.23 17.288 1208.23 17.96C1208.23 18.9627 1207.85 19.7467 1207.11 20.312C1206.37 20.8773 1205.35 21.16 1204.03 21.16ZM1204.03 14.488C1204.66 14.488 1205.15 14.3387 1205.51 14.04C1205.87 13.7413 1206.05 13.3307 1206.05 12.808C1206.05 12.296 1205.87 11.896 1205.51 11.608C1205.15 11.3093 1204.66 11.16 1204.03 11.16C1203.41 11.16 1202.91 11.3093 1202.56 11.608C1202.21 11.896 1202.03 12.296 1202.03 12.808C1202.03 13.3307 1202.21 13.7413 1202.56 14.04C1202.91 14.3387 1203.41 14.488 1204.03 14.488ZM1204.03 19.56C1205.56 19.56 1206.32 18.9787 1206.32 17.816C1206.32 16.664 1205.56 16.088 1204.03 16.088C1203.29 16.088 1202.72 16.232 1202.32 16.52C1201.94 16.808 1201.75 17.24 1201.75 17.816C1201.75 18.392 1201.94 18.8293 1202.32 19.128C1202.72 19.416 1203.29 19.56 1204.03 19.56ZM1213.63 21.16C1212.29 21.16 1211.28 20.6587 1210.57 19.656C1209.87 18.6427 1209.52 17.2027 1209.52 15.336C1209.52 13.448 1209.87 12.0133 1210.57 11.032C1211.28 10.0507 1212.29 9.56 1213.63 9.56C1214.97 9.56 1215.99 10.0507 1216.68 11.032C1217.39 12.0133 1217.74 13.4427 1217.74 15.32C1217.74 17.1973 1217.39 18.6427 1216.68 19.656C1215.98 20.6587 1214.96 21.16 1213.63 21.16ZM1213.63 19.48C1214.35 19.48 1214.89 19.1493 1215.23 18.488C1215.58 17.816 1215.76 16.76 1215.76 15.32C1215.76 13.8907 1215.58 12.856 1215.23 12.216C1214.89 11.5653 1214.35 11.24 1213.63 11.24C1212.91 11.24 1212.38 11.5653 1212.03 12.216C1211.68 12.856 1211.5 13.8907 1211.5 15.32C1211.5 16.76 1211.68 17.816 1212.03 18.488C1212.38 19.1493 1212.91 19.48 1213.63 19.48ZM1223.22 21.16C1221.89 21.16 1220.87 20.6587 1220.17 19.656C1219.46 18.6427 1219.11 17.2027 1219.11 15.336C1219.11 13.448 1219.46 12.0133 1220.17 11.032C1220.87 10.0507 1221.89 9.56 1223.22 9.56C1224.57 9.56 1225.58 10.0507 1226.28 11.032C1226.98 12.0133 1227.33 13.4427 1227.33 15.32C1227.33 17.1973 1226.98 18.6427 1226.28 19.656C1225.57 20.6587 1224.56 21.16 1223.22 21.16ZM1223.22 19.48C1223.95 19.48 1224.48 19.1493 1224.82 18.488C1225.17 17.816 1225.35 16.76 1225.35 15.32C1225.35 13.8907 1225.17 12.856 1224.82 12.216C1224.48 11.5653 1223.95 11.24 1223.22 11.24C1222.51 11.24 1221.97 11.5653 1221.62 12.216C1221.27 12.856 1221.09 13.8907 1221.09 15.32C1221.09 16.76 1221.27 17.816 1221.62 18.488C1221.97 19.1493 1222.51 19.48 1223.22 19.48ZM1229.94 24.12L1228.58 23.576C1229.08 22.3387 1229.44 21.1867 1229.66 20.12C1229.89 19.0533 1230 17.944 1230 16.792C1230 15.64 1229.89 14.5307 1229.66 13.464C1229.44 12.3973 1229.08 11.2453 1228.58 10.008L1229.94 9.464C1230.72 10.6373 1231.29 11.8373 1231.63 13.064C1231.97 14.28 1232.14 15.5227 1232.14 16.792C1232.14 18.0613 1231.97 19.3093 1231.63 20.536C1231.29 21.752 1230.72 22.9467 1229.94 24.12ZM1239.81 21V19.304H1242.35V12.056L1240.38 13.24L1239.58 11.736L1242.94 9.72H1244.4V19.304H1246.78V21H1239.81ZM1248.94 21V19.48L1252.58 15.592C1253.07 15.0587 1253.43 14.5893 1253.64 14.184C1253.85 13.768 1253.96 13.3467 1253.96 12.92C1253.96 11.832 1253.3 11.288 1251.99 11.288C1250.97 11.288 1250.02 11.672 1249.16 12.44L1248.47 10.904C1248.92 10.4987 1249.48 10.1733 1250.15 9.928C1250.82 9.68267 1251.52 9.56 1252.25 9.56C1253.45 9.56 1254.38 9.832 1255.02 10.376C1255.67 10.92 1255.99 11.6987 1255.99 12.712C1255.99 13.3947 1255.83 14.0507 1255.5 14.68C1255.18 15.3093 1254.67 15.9867 1253.98 16.712L1251.5 19.304H1256.42V21H1248.94ZM1261.83 21.16C1261.06 21.16 1260.32 21.048 1259.62 20.824C1258.92 20.5893 1258.35 20.2747 1257.89 19.88L1258.56 18.312C1259.52 19.0587 1260.59 19.432 1261.76 19.432C1263.2 19.432 1263.92 18.8667 1263.92 17.736C1263.92 17.2027 1263.74 16.808 1263.38 16.552C1263.03 16.2853 1262.51 16.152 1261.83 16.152H1260.02V14.456H1261.63C1262.23 14.456 1262.71 14.312 1263.06 14.024C1263.41 13.7253 1263.59 13.3147 1263.59 12.792C1263.59 12.3013 1263.42 11.928 1263.09 11.672C1262.77 11.416 1262.3 11.288 1261.68 11.288C1260.57 11.288 1259.6 11.672 1258.75 12.44L1258.08 10.904C1258.53 10.4773 1259.09 10.1467 1259.76 9.912C1260.43 9.67733 1261.13 9.56 1261.86 9.56C1263.03 9.56 1263.94 9.82667 1264.59 10.36C1265.24 10.8827 1265.57 11.6133 1265.57 12.552C1265.57 13.16 1265.42 13.6933 1265.11 14.152C1264.8 14.6107 1264.38 14.9413 1263.84 15.144C1264.49 15.3253 1265 15.6613 1265.36 16.152C1265.72 16.632 1265.91 17.2187 1265.91 17.912C1265.91 18.9147 1265.54 19.7093 1264.82 20.296C1264.09 20.872 1263.1 21.16 1261.83 21.16ZM1267.93 17.512V15.912H1272.7V17.512H1267.93ZM1279.37 21V18.856H1274.45V17.352L1279.72 9.72H1281.41V17.16H1283V18.856H1281.41V21H1279.37ZM1279.37 17.16V12.856L1276.42 17.16H1279.37ZM1288.27 21.16C1287.54 21.16 1286.82 21.048 1286.13 20.824C1285.43 20.5893 1284.87 20.2747 1284.43 19.88L1285.1 18.312C1286.07 19.0587 1287.12 19.432 1288.24 19.432C1288.91 19.432 1289.43 19.2613 1289.81 18.92C1290.19 18.568 1290.38 18.0987 1290.38 17.512C1290.38 16.9147 1290.2 16.4347 1289.84 16.072C1289.48 15.6987 1288.98 15.512 1288.35 15.512C1287.46 15.512 1286.71 15.8693 1286.13 16.584H1284.75V9.72H1291.68V11.416H1286.75V14.472C1287.32 14.0453 1288.01 13.832 1288.83 13.832C1289.55 13.832 1290.16 13.9867 1290.69 14.296C1291.22 14.5947 1291.63 15.016 1291.92 15.56C1292.22 16.0933 1292.37 16.7173 1292.37 17.432C1292.37 18.168 1292.2 18.8187 1291.87 19.384C1291.54 19.9387 1291.07 20.376 1290.45 20.696C1289.84 21.0053 1289.11 21.16 1288.27 21.16ZM1294.06 17.512V15.912H1298.82V17.512H1294.06ZM1305.12 21.16C1303.72 21.16 1302.64 20.6693 1301.87 19.688C1301.12 18.7067 1300.74 17.3307 1300.74 15.56C1300.74 13.6507 1301.16 12.1733 1302.02 11.128C1302.88 10.0827 1304.07 9.56 1305.59 9.56C1306.18 9.56 1306.78 9.672 1307.36 9.896C1307.95 10.1093 1308.45 10.4187 1308.87 10.824L1308.19 12.36C1307.8 11.9973 1307.38 11.7307 1306.93 11.56C1306.48 11.3787 1306.02 11.288 1305.55 11.288C1304.63 11.288 1303.92 11.6133 1303.43 12.264C1302.94 12.9147 1302.69 13.8853 1302.69 15.176V15.64C1302.91 15.0533 1303.28 14.5947 1303.78 14.264C1304.28 13.9333 1304.86 13.768 1305.51 13.768C1306.16 13.768 1306.73 13.9227 1307.23 14.232C1307.74 14.5413 1308.13 14.968 1308.42 15.512C1308.71 16.056 1308.85 16.68 1308.85 17.384C1308.85 18.1093 1308.69 18.76 1308.37 19.336C1308.06 19.9013 1307.62 20.3493 1307.06 20.68C1306.5 21 1305.86 21.16 1305.12 21.16ZM1305.01 19.528C1305.59 19.528 1306.05 19.3413 1306.4 18.968C1306.76 18.584 1306.95 18.0827 1306.95 17.464C1306.95 16.8453 1306.76 16.344 1306.4 15.96C1306.05 15.576 1305.59 15.384 1305.01 15.384C1304.43 15.384 1303.96 15.576 1303.6 15.96C1303.25 16.344 1303.07 16.8453 1303.07 17.464C1303.07 18.0827 1303.25 18.584 1303.6 18.968C1303.96 19.3413 1304.43 19.528 1305.01 19.528ZM1310.88 21L1315.96 11.432H1310.38V9.72H1318.24V11.256L1313.13 21H1310.88Z" fill="white"/>
<rect x="0.5" y="60.5" width="97.333" height="31" rx="15.5" stroke="white" stroke-opacity="0.3"/>
<path d="M20.6664 74.6669C21.0344 74.6669 21.333 74.3683 21.333 74.0003C21.333 73.6323 21.0344 73.3336 20.6664 73.3336C20.2984 73.3336 19.9998 73.6323 19.9998 74.0003C19.9998 74.3683 20.2984 74.6669 20.6664 74.6669Z" fill="white"/>
<path d="M19.7984 81.7554L20.0698 82.2981C20.1831 82.5241 20.4138 82.6667 20.6664 82.6667C20.9191 82.6667 21.1498 82.5241 21.2631 82.2981L21.8377 81.1488C22.5371 79.7494 23.3997 78.3942 24.2337 77.0835L24.6137 76.4855C25.0843 75.7415 25.333 74.8822 25.333 74.0002C25.333 72.6722 24.7644 71.4029 23.773 70.5176C22.7824 69.633 21.4498 69.209 20.1211 69.365C18.0465 69.601 16.3332 71.2716 16.0459 73.3369C15.8759 74.5609 16.1819 75.7762 16.9065 76.7602C18.0372 78.2922 18.9198 79.9968 19.7984 81.7554ZM20.6664 72.0003C21.7691 72.0003 22.6664 72.8976 22.6664 74.0002C22.6664 75.1029 21.7691 76.0002 20.6664 76.0002C19.5638 76.0002 18.6665 75.1029 18.6665 74.0002C18.6665 72.8976 19.5638 72.0003 20.6664 72.0003Z" fill="white"/>
<path d="M33.579 80.5V70.63H34.545L38.339 77.756L42.105 70.63H43.071V80.5H42.007V72.786L38.717 78.974H37.961L34.629 72.8V80.5H33.579ZM48.2716 80.626C47.6089 80.626 47.0349 80.4813 46.5496 80.192C46.0642 79.9027 45.6862 79.4967 45.4156 78.974C45.1542 78.442 45.0236 77.8167 45.0236 77.098C45.0236 76.3793 45.1542 75.7587 45.4156 75.236C45.6862 74.704 46.0642 74.2933 46.5496 74.004C47.0349 73.7147 47.6089 73.57 48.2716 73.57C48.9249 73.57 49.4942 73.7147 49.9796 74.004C50.4742 74.2933 50.8522 74.704 51.1136 75.236C51.3842 75.7587 51.5196 76.3793 51.5196 77.098C51.5196 77.8167 51.3842 78.442 51.1136 78.974C50.8522 79.4967 50.4742 79.9027 49.9796 80.192C49.4942 80.4813 48.9249 80.626 48.2716 80.626ZM48.2716 79.716C48.9062 79.716 49.4149 79.492 49.7976 79.044C50.1802 78.5867 50.3716 77.938 50.3716 77.098C50.3716 76.2487 50.1802 75.6 49.7976 75.152C49.4149 74.704 48.9062 74.48 48.2716 74.48C47.6276 74.48 47.1142 74.704 46.7316 75.152C46.3582 75.6 46.1716 76.2487 46.1716 77.098C46.1716 77.938 46.3582 78.5867 46.7316 79.044C47.1142 79.492 47.6276 79.716 48.2716 79.716ZM56.2573 80.626C55.5759 80.626 54.9879 80.4813 54.4933 80.192C53.9986 79.8933 53.6159 79.478 53.3453 78.946C53.0839 78.4047 52.9533 77.7747 52.9533 77.056C52.9533 75.9733 53.2473 75.124 53.8353 74.508C54.4233 73.8827 55.2306 73.57 56.2573 73.57C56.6773 73.57 57.0926 73.6447 57.5033 73.794C57.9139 73.9433 58.2546 74.1533 58.5253 74.424L58.1333 75.25C57.8626 74.9887 57.5639 74.7973 57.2373 74.676C56.9199 74.5547 56.6166 74.494 56.3273 74.494C55.6179 74.494 55.0719 74.718 54.6893 75.166C54.3066 75.6047 54.1153 76.2393 54.1153 77.07C54.1153 77.882 54.3066 78.526 54.6893 79.002C55.0719 79.4687 55.6179 79.702 56.3273 79.702C56.6166 79.702 56.9199 79.6413 57.2373 79.52C57.5639 79.3987 57.8626 79.2027 58.1333 78.932L58.5253 79.758C58.2546 80.0287 57.9093 80.2433 57.4893 80.402C57.0786 80.5513 56.6679 80.626 56.2573 80.626ZM59.9764 80.5V73.696H61.1104V76.538H62.3844L64.6104 73.696H65.8564L63.4904 76.762C63.7331 76.8553 63.9524 77.0093 64.1484 77.224C64.3444 77.4387 64.5638 77.7467 64.8064 78.148L66.2064 80.5H64.9884L63.7564 78.442C63.5231 78.0407 63.2991 77.7747 63.0844 77.644C62.8698 77.5133 62.5664 77.448 62.1744 77.448H61.1104V80.5H59.9764ZM67.3456 80.5V73.696H70.6636C71.4663 73.696 72.0589 73.85 72.4416 74.158C72.8243 74.4567 73.0156 74.9 73.0156 75.488C73.0156 75.8427 72.9129 76.1507 72.7076 76.412C72.5116 76.6733 72.2409 76.8647 71.8956 76.986C72.3156 77.0887 72.6423 77.2847 72.8756 77.574C73.1183 77.8633 73.2396 78.2133 73.2396 78.624C73.2396 79.2027 73.0249 79.66 72.5956 79.996C72.1663 80.332 71.5596 80.5 70.7756 80.5H67.3456ZM68.4236 76.65H70.6076C71.0369 76.65 71.3683 76.5567 71.6016 76.37C71.8349 76.174 71.9516 75.8987 71.9516 75.544C71.9516 75.1987 71.8349 74.9327 71.6016 74.746C71.3683 74.5593 71.0369 74.466 70.6076 74.466H68.4236V76.65ZM68.4236 79.73H70.7336C71.2003 79.73 71.5549 79.632 71.7976 79.436C72.0403 79.24 72.1616 78.9507 72.1616 78.568C72.1616 78.1947 72.0403 77.91 71.7976 77.714C71.5549 77.518 71.2003 77.42 70.7336 77.42H68.4236V79.73ZM77.1578 80.626C76.6912 80.626 76.2712 80.5373 75.8978 80.36C75.5338 80.1733 75.2445 79.9213 75.0298 79.604C74.8152 79.2867 74.7078 78.932 74.7078 78.54C74.7078 78.0453 74.8338 77.6533 75.0858 77.364C75.3472 77.0747 75.7718 76.8693 76.3598 76.748C76.9572 76.6173 77.7692 76.552 78.7958 76.552H79.2438V76.118C79.2438 75.5393 79.1225 75.124 78.8798 74.872C78.6465 74.6107 78.2685 74.48 77.7458 74.48C77.3352 74.48 76.9385 74.5407 76.5558 74.662C76.1732 74.774 75.7812 74.9607 75.3798 75.222L74.9878 74.396C75.3425 74.144 75.7718 73.9433 76.2758 73.794C76.7892 73.6447 77.2792 73.57 77.7458 73.57C78.6232 73.57 79.2718 73.7847 79.6918 74.214C80.1212 74.6433 80.3358 75.3107 80.3358 76.216V80.5H79.2718V79.324C79.0945 79.7253 78.8192 80.0427 78.4458 80.276C78.0818 80.5093 77.6525 80.626 77.1578 80.626ZM77.3398 79.772C77.8998 79.772 78.3572 79.5807 78.7118 79.198C79.0665 78.806 79.2438 78.3113 79.2438 77.714V77.294H78.8098C78.0538 77.294 77.4565 77.3313 77.0178 77.406C76.5885 77.4713 76.2852 77.5927 76.1078 77.77C75.9398 77.938 75.8558 78.1713 75.8558 78.47C75.8558 78.8527 75.9865 79.1653 76.2478 79.408C76.5185 79.6507 76.8825 79.772 77.3398 79.772Z" fill="white"/>
<path d="M241.312 80V68.72H242.976V73.584H249.296V68.72H250.944V80H249.296V74.976H242.976V80H241.312ZM256.89 80.144C256.1 80.144 255.418 79.9787 254.842 79.648C254.266 79.3173 253.818 78.8533 253.498 78.256C253.188 77.648 253.034 76.928 253.034 76.096C253.034 75.264 253.188 74.5493 253.498 73.952C253.818 73.344 254.266 72.8747 254.842 72.544C255.418 72.2133 256.1 72.048 256.89 72.048C257.658 72.048 258.33 72.2133 258.906 72.544C259.482 72.8747 259.93 73.344 260.25 73.952C260.57 74.5493 260.73 75.264 260.73 76.096C260.73 76.928 260.57 77.648 260.25 78.256C259.93 78.8533 259.482 79.3173 258.906 79.648C258.33 79.9787 257.658 80.144 256.89 80.144ZM256.89 78.896C257.551 78.896 258.084 78.656 258.49 78.176C258.895 77.696 259.098 77.0027 259.098 76.096C259.098 75.1893 258.895 74.5013 258.49 74.032C258.084 73.552 257.551 73.312 256.89 73.312C256.218 73.312 255.679 73.552 255.274 74.032C254.868 74.5013 254.666 75.1893 254.666 76.096C254.666 77.0027 254.868 77.696 255.274 78.176C255.679 78.656 256.218 78.896 256.89 78.896ZM262.716 80V72.192H266.7C267.66 72.192 268.359 72.3733 268.796 72.736C269.244 73.088 269.468 73.5893 269.468 74.24C269.468 74.6453 269.351 75.0027 269.116 75.312C268.892 75.6107 268.583 75.8293 268.188 75.968C268.679 76.0853 269.057 76.3093 269.324 76.64C269.591 76.9707 269.724 77.3653 269.724 77.824C269.724 78.496 269.473 79.0293 268.972 79.424C268.471 79.808 267.756 80 266.828 80H262.716ZM264.236 75.504H266.588C267.025 75.504 267.361 75.4027 267.596 75.2C267.841 74.9973 267.964 74.72 267.964 74.368C267.964 74.0053 267.841 73.728 267.596 73.536C267.361 73.344 267.025 73.248 266.588 73.248H264.236V75.504ZM264.236 78.96H266.732C267.735 78.96 268.236 78.5547 268.236 77.744C268.236 76.944 267.735 76.544 266.732 76.544H264.236V78.96ZM271.607 80V72.192H273.223V74.896H275.447C276.449 74.896 277.212 75.1147 277.735 75.552C278.257 75.9787 278.519 76.6027 278.519 77.424C278.519 78.2133 278.247 78.8427 277.703 79.312C277.159 79.7707 276.407 80 275.447 80H271.607ZM279.575 80V72.192H281.191V80H279.575ZM273.223 78.896H275.239C275.793 78.896 276.225 78.7787 276.535 78.544C276.844 78.2987 276.999 77.9253 276.999 77.424C276.999 76.9333 276.844 76.576 276.535 76.352C276.225 76.1173 275.793 76 275.239 76H273.223V78.896ZM287.302 80.144C286.022 80.144 285.014 79.7867 284.278 79.072C283.542 78.3467 283.174 77.36 283.174 76.112C283.174 75.312 283.334 74.608 283.654 74C283.985 73.3813 284.438 72.9013 285.014 72.56C285.59 72.2187 286.252 72.048 286.998 72.048C288.076 72.048 288.924 72.3947 289.542 73.088C290.161 73.7707 290.47 74.7147 290.47 75.92V76.464H284.742C284.86 78.0853 285.718 78.896 287.318 78.896C287.766 78.896 288.204 78.8267 288.63 78.688C289.068 78.5493 289.478 78.32 289.862 78L290.342 79.12C289.99 79.44 289.537 79.6907 288.982 79.872C288.428 80.0533 287.868 80.144 287.302 80.144ZM287.062 73.184C286.39 73.184 285.857 73.392 285.462 73.808C285.068 74.224 284.828 74.7787 284.742 75.472H289.11C289.078 74.7467 288.886 74.1867 288.534 73.792C288.182 73.3867 287.692 73.184 287.062 73.184ZM299.103 80.144C298.559 80.144 298.074 80.0373 297.647 79.824C297.22 79.6107 296.879 79.3227 296.623 78.96C296.378 78.5973 296.255 78.1867 296.255 77.728C296.255 77.152 296.399 76.6987 296.687 76.368C296.986 76.0373 297.471 75.7973 298.143 75.648C298.826 75.4987 299.743 75.424 300.895 75.424H301.439V75.008C301.439 74.4 301.311 73.9627 301.055 73.696C300.799 73.4293 300.378 73.296 299.791 73.296C299.343 73.296 298.895 73.3653 298.447 73.504C297.999 73.632 297.54 73.84 297.071 74.128L296.575 72.992C296.98 72.704 297.487 72.4747 298.095 72.304C298.703 72.1333 299.284 72.048 299.839 72.048C300.906 72.048 301.695 72.304 302.207 72.816C302.719 73.3173 302.975 74.1067 302.975 75.184V80H301.455V78.704C301.263 79.152 300.964 79.504 300.559 79.76C300.154 80.016 299.668 80.144 299.103 80.144ZM299.423 78.992C299.999 78.992 300.479 78.7893 300.863 78.384C301.247 77.9787 301.439 77.4667 301.439 76.848V76.416H300.911C300.132 76.416 299.519 76.4533 299.071 76.528C298.634 76.6027 298.319 76.7307 298.127 76.912C297.946 77.0827 297.855 77.3227 297.855 77.632C297.855 78.0373 297.994 78.368 298.271 78.624C298.548 78.8693 298.932 78.992 299.423 78.992ZM305.372 80V72.192H309.356C310.316 72.192 311.015 72.3733 311.452 72.736C311.9 73.088 312.124 73.5893 312.124 74.24C312.124 74.6453 312.007 75.0027 311.772 75.312C311.548 75.6107 311.239 75.8293 310.844 75.968C311.335 76.0853 311.714 76.3093 311.98 76.64C312.247 76.9707 312.38 77.3653 312.38 77.824C312.38 78.496 312.13 79.0293 311.628 79.424C311.127 79.808 310.412 80 309.484 80H305.372ZM306.892 75.504H309.244C309.682 75.504 310.018 75.4027 310.252 75.2C310.498 74.9973 310.62 74.72 310.62 74.368C310.62 74.0053 310.498 73.728 310.252 73.536C310.018 73.344 309.682 73.248 309.244 73.248H306.892V75.504ZM306.892 78.96H309.388C310.391 78.96 310.892 78.5547 310.892 77.744C310.892 76.944 310.391 76.544 309.388 76.544H306.892V78.96ZM316.051 80V73.488H313.299V72.192H320.435V73.488H317.667V80H316.051ZM325.093 80.144C324.303 80.144 323.621 79.9787 323.045 79.648C322.469 79.3173 322.021 78.8533 321.701 78.256C321.391 77.648 321.237 76.928 321.237 76.096C321.237 75.264 321.391 74.5493 321.701 73.952C322.021 73.344 322.469 72.8747 323.045 72.544C323.621 72.2133 324.303 72.048 325.093 72.048C325.861 72.048 326.533 72.2133 327.109 72.544C327.685 72.8747 328.133 73.344 328.453 73.952C328.773 74.5493 328.933 75.264 328.933 76.096C328.933 76.928 328.773 77.648 328.453 78.256C328.133 78.8533 327.685 79.3173 327.109 79.648C326.533 79.9787 325.861 80.144 325.093 80.144ZM325.093 78.896C325.754 78.896 326.287 78.656 326.693 78.176C327.098 77.696 327.301 77.0027 327.301 76.096C327.301 75.1893 327.098 74.5013 326.693 74.032C326.287 73.552 325.754 73.312 325.093 73.312C324.421 73.312 323.882 73.552 323.477 74.032C323.071 74.5013 322.869 75.1893 322.869 76.096C322.869 77.0027 323.071 77.696 323.477 78.176C323.882 78.656 324.421 78.896 325.093 78.896ZM330.919 80V72.192H332.247L335.079 77.136L337.895 72.192H339.223V80H337.799V74.704L335.463 78.736H334.679L332.343 74.704V80H330.919ZM345.062 80.144C344.272 80.144 343.59 79.9787 343.014 79.648C342.438 79.3173 341.99 78.8533 341.67 78.256C341.36 77.648 341.206 76.928 341.206 76.096C341.206 75.264 341.36 74.5493 341.67 73.952C341.99 73.344 342.438 72.8747 343.014 72.544C343.59 72.2133 344.272 72.048 345.062 72.048C345.83 72.048 346.502 72.2133 347.078 72.544C347.654 72.8747 348.102 73.344 348.422 73.952C348.742 74.5493 348.902 75.264 348.902 76.096C348.902 76.928 348.742 77.648 348.422 78.256C348.102 78.8533 347.654 79.3173 347.078 79.648C346.502 79.9787 345.83 80.144 345.062 80.144ZM345.062 78.896C345.723 78.896 346.256 78.656 346.662 78.176C347.067 77.696 347.27 77.0027 347.27 76.096C347.27 75.1893 347.067 74.5013 346.662 74.032C346.256 73.552 345.723 73.312 345.062 73.312C344.39 73.312 343.851 73.552 343.446 74.032C343.04 74.5013 342.838 75.1893 342.838 76.096C342.838 77.0027 343.04 77.696 343.446 78.176C343.851 78.656 344.39 78.896 345.062 78.896ZM354.344 80.144C353.139 80.144 352.184 79.7653 351.48 79.008C350.787 78.2507 350.44 77.136 350.44 75.664V74.48C350.44 72.9227 350.771 71.7387 351.432 70.928C352.093 70.1067 353.08 69.5253 354.392 69.184L357.144 68.464L357.656 69.76L354.504 70.56C353.672 70.7733 353.043 71.1627 352.616 71.728C352.189 72.2933 351.976 72.992 351.976 73.824V73.888C352.221 73.376 352.579 72.9707 353.048 72.672C353.528 72.3733 354.099 72.224 354.76 72.224C355.421 72.224 356.003 72.384 356.504 72.704C357.016 73.0133 357.416 73.4613 357.704 74.048C357.992 74.6347 358.136 75.328 358.136 76.128C358.136 76.9493 357.976 77.664 357.656 78.272C357.347 78.8693 356.904 79.3333 356.328 79.664C355.763 79.984 355.101 80.144 354.344 80.144ZM354.28 78.896C354.984 78.896 355.528 78.6667 355.912 78.208C356.307 77.7387 356.504 77.0667 356.504 76.192C356.504 75.328 356.307 74.6613 355.912 74.192C355.517 73.712 354.973 73.472 354.28 73.472C353.597 73.472 353.059 73.7067 352.664 74.176C352.269 74.6347 352.072 75.2693 352.072 76.08C352.072 77.008 352.264 77.712 352.648 78.192C353.043 78.6613 353.587 78.896 354.28 78.896ZM360.122 80V72.192H361.594V77.856L365.818 72.192H367.178V80H365.706V74.352L361.482 80H360.122ZM369.271 80.208L368.727 78.928C369.196 78.736 369.564 78.4747 369.831 78.144C370.097 77.8027 370.289 77.3333 370.407 76.736C370.524 76.128 370.583 75.344 370.583 74.384V72.192H376.535V80H374.919V73.488H372.087V74.432C372.087 75.6053 371.991 76.5813 371.799 77.36C371.607 78.1387 371.303 78.7573 370.887 79.216C370.481 79.664 369.943 79.9947 369.271 80.208ZM378.966 80V72.192H380.438V77.856L384.662 72.192H386.022V80H384.55V74.352L380.326 80H378.966Z" fill="white"/>
<path d="M412.176 80L417.2 68.72H418.576L423.616 80H421.92L420.736 77.248H415.024L413.856 80H412.176ZM417.872 70.56L415.616 75.904H420.176L417.904 70.56H417.872ZM424.997 80V72.192H428.981C429.941 72.192 430.64 72.3733 431.077 72.736C431.525 73.088 431.749 73.5893 431.749 74.24C431.749 74.6453 431.632 75.0027 431.397 75.312C431.173 75.6107 430.864 75.8293 430.469 75.968C430.96 76.0853 431.339 76.3093 431.605 76.64C431.872 76.9707 432.005 77.3653 432.005 77.824C432.005 78.496 431.755 79.0293 431.253 79.424C430.752 79.808 430.037 80 429.109 80H424.997ZM426.517 75.504H428.869C429.307 75.504 429.643 75.4027 429.877 75.2C430.123 74.9973 430.245 74.72 430.245 74.368C430.245 74.0053 430.123 73.728 429.877 73.536C429.643 73.344 429.307 73.248 428.869 73.248H426.517V75.504ZM426.517 78.96H429.013C430.016 78.96 430.517 78.5547 430.517 77.744C430.517 76.944 430.016 76.544 429.013 76.544H426.517V78.96ZM435.676 80V73.488H432.924V72.192H440.06V73.488H437.292V80H435.676ZM444.718 80.144C443.928 80.144 443.246 79.9787 442.67 79.648C442.094 79.3173 441.646 78.8533 441.326 78.256C441.016 77.648 440.862 76.928 440.862 76.096C440.862 75.264 441.016 74.5493 441.326 73.952C441.646 73.344 442.094 72.8747 442.67 72.544C443.246 72.2133 443.928 72.048 444.718 72.048C445.486 72.048 446.158 72.2133 446.734 72.544C447.31 72.8747 447.758 73.344 448.078 73.952C448.398 74.5493 448.558 75.264 448.558 76.096C448.558 76.928 448.398 77.648 448.078 78.256C447.758 78.8533 447.31 79.3173 446.734 79.648C446.158 79.9787 445.486 80.144 444.718 80.144ZM444.718 78.896C445.379 78.896 445.912 78.656 446.318 78.176C446.723 77.696 446.926 77.0027 446.926 76.096C446.926 75.1893 446.723 74.5013 446.318 74.032C445.912 73.552 445.379 73.312 444.718 73.312C444.046 73.312 443.507 73.552 443.102 74.032C442.696 74.5013 442.494 75.1893 442.494 76.096C442.494 77.0027 442.696 77.696 443.102 78.176C443.507 78.656 444.046 78.896 444.718 78.896ZM450.544 80V72.192H451.872L454.704 77.136L457.52 72.192H458.848V80H457.424V74.704L455.088 78.736H454.304L451.968 74.704V80H450.544ZM464.687 80.144C463.897 80.144 463.215 79.9787 462.639 79.648C462.063 79.3173 461.615 78.8533 461.295 78.256C460.985 77.648 460.831 76.928 460.831 76.096C460.831 75.264 460.985 74.5493 461.295 73.952C461.615 73.344 462.063 72.8747 462.639 72.544C463.215 72.2133 463.897 72.048 464.687 72.048C465.455 72.048 466.127 72.2133 466.703 72.544C467.279 72.8747 467.727 73.344 468.047 73.952C468.367 74.5493 468.527 75.264 468.527 76.096C468.527 76.928 468.367 77.648 468.047 78.256C467.727 78.8533 467.279 79.3173 466.703 79.648C466.127 79.9787 465.455 80.144 464.687 80.144ZM464.687 78.896C465.348 78.896 465.881 78.656 466.287 78.176C466.692 77.696 466.895 77.0027 466.895 76.096C466.895 75.1893 466.692 74.5013 466.287 74.032C465.881 73.552 465.348 73.312 464.687 73.312C464.015 73.312 463.476 73.552 463.071 74.032C462.665 74.5013 462.463 75.1893 462.463 76.096C462.463 77.0027 462.665 77.696 463.071 78.176C463.476 78.656 464.015 78.896 464.687 78.896ZM473.969 80.144C472.764 80.144 471.809 79.7653 471.105 79.008C470.412 78.2507 470.065 77.136 470.065 75.664V74.48C470.065 72.9227 470.396 71.7387 471.057 70.928C471.718 70.1067 472.705 69.5253 474.017 69.184L476.769 68.464L477.281 69.76L474.129 70.56C473.297 70.7733 472.668 71.1627 472.241 71.728C471.814 72.2933 471.601 72.992 471.601 73.824V73.888C471.846 73.376 472.204 72.9707 472.673 72.672C473.153 72.3733 473.724 72.224 474.385 72.224C475.046 72.224 475.628 72.384 476.129 72.704C476.641 73.0133 477.041 73.4613 477.329 74.048C477.617 74.6347 477.761 75.328 477.761 76.128C477.761 76.9493 477.601 77.664 477.281 78.272C476.972 78.8693 476.529 79.3333 475.953 79.664C475.388 79.984 474.726 80.144 473.969 80.144ZM473.905 78.896C474.609 78.896 475.153 78.6667 475.537 78.208C475.932 77.7387 476.129 77.0667 476.129 76.192C476.129 75.328 475.932 74.6613 475.537 74.192C475.142 73.712 474.598 73.472 473.905 73.472C473.222 73.472 472.684 73.7067 472.289 74.176C471.894 74.6347 471.697 75.2693 471.697 76.08C471.697 77.008 471.889 77.712 472.273 78.192C472.668 78.6613 473.212 78.896 473.905 78.896ZM479.747 80V72.192H481.219V77.856L485.443 72.192H486.803V80H485.331V74.352L481.107 80H479.747ZM488.896 80.208L488.352 78.928C488.821 78.736 489.189 78.4747 489.456 78.144C489.722 77.8027 489.914 77.3333 490.032 76.736C490.149 76.128 490.208 75.344 490.208 74.384V72.192H496.16V80H494.544V73.488H491.712V74.432C491.712 75.6053 491.616 76.5813 491.424 77.36C491.232 78.1387 490.928 78.7573 490.512 79.216C490.106 79.664 489.568 79.9947 488.896 80.208ZM498.591 80V72.192H500.063V77.856L504.287 72.192H505.647V80H504.175V74.352L499.951 80H498.591ZM515.735 80.144C514.935 80.144 514.241 79.9787 513.655 79.648C513.079 79.3067 512.631 78.832 512.311 78.224C511.991 77.6053 511.831 76.88 511.831 76.048C511.831 74.8107 512.183 73.8347 512.887 73.12C513.591 72.4053 514.54 72.048 515.735 72.048C516.225 72.048 516.711 72.1333 517.191 72.304C517.671 72.4747 518.065 72.7093 518.375 73.008L517.863 74.144C517.564 73.8667 517.233 73.664 516.871 73.536C516.519 73.3973 516.183 73.328 515.863 73.328C515.105 73.328 514.519 73.568 514.103 74.048C513.697 74.5173 513.495 75.1893 513.495 76.064C513.495 76.9387 513.697 77.6267 514.103 78.128C514.519 78.6187 515.105 78.864 515.863 78.864C516.183 78.864 516.519 78.8 516.871 78.672C517.233 78.5333 517.564 78.3253 517.863 78.048L518.375 79.2C518.065 79.488 517.665 79.7173 517.175 79.888C516.695 80.0587 516.215 80.144 515.735 80.144ZM524.138 80V72.192H531.21V80H529.594V73.488H525.754V80H524.138ZM533.638 82.88V72.192H535.222V73.52C535.446 73.072 535.788 72.7147 536.246 72.448C536.705 72.1813 537.233 72.048 537.83 72.048C538.524 72.048 539.126 72.2133 539.638 72.544C540.161 72.8747 540.561 73.344 540.838 73.952C541.126 74.5493 541.27 75.264 541.27 76.096C541.27 76.928 541.126 77.648 540.838 78.256C540.561 78.864 540.161 79.3333 539.638 79.664C539.126 79.984 538.524 80.144 537.83 80.144C537.254 80.144 536.737 80.0213 536.278 79.776C535.83 79.52 535.489 79.1733 535.254 78.736V82.88H533.638ZM537.43 78.896C538.102 78.896 538.636 78.656 539.03 78.176C539.436 77.696 539.638 77.0027 539.638 76.096C539.638 75.1893 539.436 74.5013 539.03 74.032C538.636 73.552 538.102 73.312 537.43 73.312C536.758 73.312 536.22 73.552 535.814 74.032C535.42 74.5013 535.222 75.1893 535.222 76.096C535.222 77.0027 535.42 77.696 535.814 78.176C536.22 78.656 536.758 78.896 537.43 78.896ZM546.655 80.144C545.866 80.144 545.183 79.9787 544.607 79.648C544.031 79.3173 543.583 78.8533 543.263 78.256C542.954 77.648 542.799 76.928 542.799 76.096C542.799 75.264 542.954 74.5493 543.263 73.952C543.583 73.344 544.031 72.8747 544.607 72.544C545.183 72.2133 545.866 72.048 546.655 72.048C547.423 72.048 548.095 72.2133 548.671 72.544C549.247 72.8747 549.695 73.344 550.015 73.952C550.335 74.5493 550.495 75.264 550.495 76.096C550.495 76.928 550.335 77.648 550.015 78.256C549.695 78.8533 549.247 79.3173 548.671 79.648C548.095 79.9787 547.423 80.144 546.655 80.144ZM546.655 78.896C547.317 78.896 547.85 78.656 548.255 78.176C548.661 77.696 548.863 77.0027 548.863 76.096C548.863 75.1893 548.661 74.5013 548.255 74.032C547.85 73.552 547.317 73.312 546.655 73.312C545.983 73.312 545.445 73.552 545.039 74.032C544.634 74.5013 544.431 75.1893 544.431 76.096C544.431 77.0027 544.634 77.696 545.039 78.176C545.445 78.656 545.983 78.896 546.655 78.896ZM555.938 80.144C554.732 80.144 553.778 79.7653 553.074 79.008C552.38 78.2507 552.034 77.136 552.034 75.664V74.48C552.034 72.9227 552.364 71.7387 553.026 70.928C553.687 70.1067 554.674 69.5253 555.986 69.184L558.738 68.464L559.25 69.76L556.098 70.56C555.266 70.7733 554.636 71.1627 554.21 71.728C553.783 72.2933 553.57 72.992 553.57 73.824V73.888C553.815 73.376 554.172 72.9707 554.642 72.672C555.122 72.3733 555.692 72.224 556.354 72.224C557.015 72.224 557.596 72.384 558.098 72.704C558.61 73.0133 559.01 73.4613 559.298 74.048C559.586 74.6347 559.73 75.328 559.73 76.128C559.73 76.9493 559.57 77.664 559.25 78.272C558.94 78.8693 558.498 79.3333 557.922 79.664C557.356 79.984 556.695 80.144 555.938 80.144ZM555.874 78.896C556.578 78.896 557.122 78.6667 557.506 78.208C557.9 77.7387 558.098 77.0667 558.098 76.192C558.098 75.328 557.9 74.6613 557.506 74.192C557.111 73.712 556.567 73.472 555.874 73.472C555.191 73.472 554.652 73.7067 554.258 74.176C553.863 74.6347 553.666 75.2693 553.666 76.08C553.666 77.008 553.858 77.712 554.242 78.192C554.636 78.6613 555.18 78.896 555.874 78.896ZM565.396 80.144C564.116 80.144 563.108 79.7867 562.372 79.072C561.636 78.3467 561.268 77.36 561.268 76.112C561.268 75.312 561.428 74.608 561.748 74C562.079 73.3813 562.532 72.9013 563.108 72.56C563.684 72.2187 564.345 72.048 565.092 72.048C566.169 72.048 567.017 72.3947 567.636 73.088C568.255 73.7707 568.564 74.7147 568.564 75.92V76.464H562.836C562.953 78.0853 563.812 78.896 565.412 78.896C565.86 78.896 566.297 78.8267 566.724 78.688C567.161 78.5493 567.572 78.32 567.956 78L568.436 79.12C568.084 79.44 567.631 79.6907 567.076 79.872C566.521 80.0533 565.961 80.144 565.396 80.144ZM565.156 73.184C564.484 73.184 563.951 73.392 563.556 73.808C563.161 74.224 562.921 74.7787 562.836 75.472H567.204C567.172 74.7467 566.98 74.1867 566.628 73.792C566.276 73.3867 565.785 73.184 565.156 73.184ZM570.482 80V72.192H576.146V73.488H572.098V80H570.482ZM581.015 80.144C580.225 80.144 579.543 79.9787 578.967 79.648C578.391 79.3173 577.943 78.8533 577.623 78.256C577.313 77.648 577.159 76.928 577.159 76.096C577.159 75.264 577.313 74.5493 577.623 73.952C577.943 73.344 578.391 72.8747 578.967 72.544C579.543 72.2133 580.225 72.048 581.015 72.048C581.783 72.048 582.455 72.2133 583.031 72.544C583.607 72.8747 584.055 73.344 584.375 73.952C584.695 74.5493 584.855 75.264 584.855 76.096C584.855 76.928 584.695 77.648 584.375 78.256C584.055 78.8533 583.607 79.3173 583.031 79.648C582.455 79.9787 581.783 80.144 581.015 80.144ZM581.015 78.896C581.676 78.896 582.209 78.656 582.615 78.176C583.02 77.696 583.223 77.0027 583.223 76.096C583.223 75.1893 583.02 74.5013 582.615 74.032C582.209 73.552 581.676 73.312 581.015 73.312C580.343 73.312 579.804 73.552 579.399 74.032C578.993 74.5013 578.791 75.1893 578.791 76.096C578.791 77.0027 578.993 77.696 579.399 78.176C579.804 78.656 580.343 78.896 581.015 78.896ZM586.841 80V72.192H588.169L591.001 77.136L593.817 72.192H595.145V80H593.721V74.704L591.385 78.736H590.601L588.265 74.704V80H586.841Z" fill="white"/>
<path d="M621.24 82.576V78.656H622.36C622.893 77.984 623.288 77.0773 623.544 75.936C623.8 74.784 623.928 73.3547 623.928 71.648V68.72H631.64V78.656H633.24V82.576H631.768V80H622.728V82.576H621.24ZM624.056 78.656H629.992V70.064H625.48V71.776C625.48 73.4187 625.363 74.7947 625.128 75.904C624.893 77.0027 624.536 77.92 624.056 78.656ZM634.489 80.208L633.945 78.928C634.415 78.736 634.783 78.4747 635.049 78.144C635.316 77.8027 635.508 77.3333 635.625 76.736C635.743 76.128 635.801 75.344 635.801 74.384V72.192H641.753V80H640.137V73.488H637.305V74.432C637.305 75.6053 637.209 76.5813 637.017 77.36C636.825 78.1387 636.521 78.7573 636.105 79.216C635.7 79.664 635.161 79.9947 634.489 80.208ZM643.529 80L644.713 77.952C645.022 77.3973 645.427 77.0293 645.929 76.848C645.267 76.7413 644.761 76.496 644.409 76.112C644.057 75.7173 643.881 75.2053 643.881 74.576C643.881 73.8507 644.126 73.2747 644.617 72.848C645.107 72.4107 645.838 72.192 646.809 72.192H650.537V80H649.033V77.152H648.025C647.651 77.152 647.331 77.2533 647.065 77.456C646.798 77.648 646.579 77.888 646.409 78.176L645.369 80H643.529ZM647.145 76.048H649.033V73.296H647.145C646.558 73.296 646.126 73.4187 645.849 73.664C645.571 73.8987 645.433 74.2293 645.433 74.656C645.433 75.0933 645.571 75.4347 645.849 75.68C646.126 75.9253 646.558 76.048 647.145 76.048ZM660.625 80.144C659.42 80.144 658.465 79.7653 657.761 79.008C657.068 78.2507 656.721 77.136 656.721 75.664V74.48C656.721 72.9227 657.052 71.7387 657.713 70.928C658.374 70.1067 659.361 69.5253 660.673 69.184L663.425 68.464L663.937 69.76L660.785 70.56C659.953 70.7733 659.324 71.1627 658.897 71.728C658.47 72.2933 658.257 72.992 658.257 73.824V73.888C658.502 73.376 658.86 72.9707 659.329 72.672C659.809 72.3733 660.38 72.224 661.041 72.224C661.702 72.224 662.284 72.384 662.785 72.704C663.297 73.0133 663.697 73.4613 663.985 74.048C664.273 74.6347 664.417 75.328 664.417 76.128C664.417 76.9493 664.257 77.664 663.937 78.272C663.628 78.8693 663.185 79.3333 662.609 79.664C662.044 79.984 661.382 80.144 660.625 80.144ZM660.561 78.896C661.265 78.896 661.809 78.6667 662.193 78.208C662.588 77.7387 662.785 77.0667 662.785 76.192C662.785 75.328 662.588 74.6613 662.193 74.192C661.798 73.712 661.254 73.472 660.561 73.472C659.878 73.472 659.34 73.7067 658.945 74.176C658.55 74.6347 658.353 75.2693 658.353 76.08C658.353 77.008 658.545 77.712 658.929 78.192C659.324 78.6613 659.868 78.896 660.561 78.896ZM666.404 80V72.192H667.876V77.856L672.1 72.192H673.46V80H671.988V74.352L667.764 80H666.404ZM678.608 80.144C677.925 80.144 677.28 80.064 676.672 79.904C676.064 79.7333 675.568 79.488 675.184 79.168L675.648 78.08C676.021 78.368 676.464 78.5867 676.976 78.736C677.499 78.8747 678.032 78.944 678.576 78.944C679.291 78.944 679.808 78.848 680.128 78.656C680.448 78.464 680.608 78.1707 680.608 77.776C680.608 77.0187 680.117 76.64 679.136 76.64H677.184V75.456H678.96C679.387 75.456 679.723 75.3653 679.968 75.184C680.213 74.992 680.336 74.7253 680.336 74.384C680.336 74.032 680.192 73.7547 679.904 73.552C679.627 73.3493 679.163 73.248 678.512 73.248C677.979 73.248 677.488 73.3173 677.04 73.456C676.592 73.584 676.165 73.7813 675.76 74.048L675.296 72.976C676.192 72.3573 677.344 72.048 678.752 72.048C679.765 72.048 680.528 72.2453 681.04 72.64C681.563 73.024 681.824 73.5573 681.824 74.24C681.824 74.6453 681.712 75.0027 681.488 75.312C681.264 75.6107 680.955 75.8293 680.56 75.968C681.04 76.0747 681.419 76.2933 681.696 76.624C681.973 76.944 682.112 77.344 682.112 77.824C682.112 78.5387 681.813 79.104 681.216 79.52C680.619 79.936 679.749 80.144 678.608 80.144ZM683.997 80V72.192H685.613V75.344H689.501V72.192H691.117V80H689.501V76.624H685.613V80H683.997ZM697.209 80.144C695.929 80.144 694.921 79.7867 694.185 79.072C693.449 78.3467 693.081 77.36 693.081 76.112C693.081 75.312 693.241 74.608 693.561 74C693.891 73.3813 694.345 72.9013 694.921 72.56C695.497 72.2187 696.158 72.048 696.905 72.048C697.982 72.048 698.83 72.3947 699.449 73.088C700.067 73.7707 700.377 74.7147 700.377 75.92V76.464H694.649C694.766 78.0853 695.625 78.896 697.225 78.896C697.673 78.896 698.11 78.8267 698.537 78.688C698.974 78.5493 699.385 78.32 699.769 78L700.249 79.12C699.897 79.44 699.443 79.6907 698.889 79.872C698.334 80.0533 697.774 80.144 697.209 80.144ZM696.969 73.184C696.297 73.184 695.763 73.392 695.369 73.808C694.974 74.224 694.734 74.7787 694.649 75.472H699.017C698.985 74.7467 698.793 74.1867 698.441 73.792C698.089 73.3867 697.598 73.184 696.969 73.184ZM705.75 80.144C704.95 80.144 704.257 79.9787 703.67 79.648C703.094 79.3067 702.646 78.832 702.326 78.224C702.006 77.6053 701.846 76.88 701.846 76.048C701.846 74.8107 702.198 73.8347 702.902 73.12C703.606 72.4053 704.555 72.048 705.75 72.048C706.241 72.048 706.726 72.1333 707.206 72.304C707.686 72.4747 708.081 72.7093 708.39 73.008L707.878 74.144C707.579 73.8667 707.249 73.664 706.886 73.536C706.534 73.3973 706.198 73.328 705.878 73.328C705.121 73.328 704.534 73.568 704.118 74.048C703.713 74.5173 703.51 75.1893 703.51 76.064C703.51 76.9387 703.713 77.6267 704.118 78.128C704.534 78.6187 705.121 78.864 705.878 78.864C706.198 78.864 706.534 78.8 706.886 78.672C707.249 78.5333 707.579 78.3253 707.878 78.048L708.39 79.2C708.081 79.488 707.681 79.7173 707.19 79.888C706.71 80.0587 706.23 80.144 705.75 80.144ZM712.462 80.144C711.918 80.144 711.433 80.0373 711.006 79.824C710.58 79.6107 710.238 79.3227 709.982 78.96C709.737 78.5973 709.614 78.1867 709.614 77.728C709.614 77.152 709.758 76.6987 710.046 76.368C710.345 76.0373 710.83 75.7973 711.502 75.648C712.185 75.4987 713.102 75.424 714.254 75.424H714.798V75.008C714.798 74.4 714.67 73.9627 714.414 73.696C714.158 73.4293 713.737 73.296 713.15 73.296C712.702 73.296 712.254 73.3653 711.806 73.504C711.358 73.632 710.9 73.84 710.43 74.128L709.934 72.992C710.34 72.704 710.846 72.4747 711.454 72.304C712.062 72.1333 712.644 72.048 713.198 72.048C714.265 72.048 715.054 72.304 715.566 72.816C716.078 73.3173 716.334 74.1067 716.334 75.184V80H714.814V78.704C714.622 79.152 714.324 79.504 713.918 79.76C713.513 80.016 713.028 80.144 712.462 80.144ZM712.782 78.992C713.358 78.992 713.838 78.7893 714.222 78.384C714.606 77.9787 714.798 77.4667 714.798 76.848V76.416H714.27C713.492 76.416 712.878 76.4533 712.43 76.528C711.993 76.6027 711.678 76.7307 711.486 76.912C711.305 77.0827 711.214 77.3227 711.214 77.632C711.214 78.0373 711.353 78.368 711.63 78.624C711.908 78.8693 712.292 78.992 712.782 78.992Z" fill="white"/>
<path d="M746.928 80.144C745.979 80.144 745.136 80.0213 744.4 79.776C743.675 79.52 743.061 79.1733 742.56 78.736L743.12 77.472C743.6 77.888 744.139 78.2027 744.736 78.416C745.344 78.6187 746.037 78.72 746.816 78.72C747.787 78.72 748.496 78.56 748.944 78.24C749.403 77.9093 749.632 77.4187 749.632 76.768C749.632 75.552 748.848 74.944 747.28 74.944H744.528V73.616H747.024C748.581 73.616 749.36 73.024 749.36 71.84C749.36 71.2747 749.152 70.8267 748.736 70.496C748.32 70.1547 747.685 69.984 746.832 69.984C746.181 69.984 745.557 70.0853 744.96 70.288C744.373 70.4907 743.84 70.7947 743.36 71.2L742.816 69.936C743.317 69.4987 743.936 69.1627 744.672 68.928C745.408 68.6933 746.181 68.576 746.992 68.576C748.325 68.576 749.328 68.8587 750 69.424C750.672 69.9893 751.008 70.736 751.008 71.664C751.008 72.272 750.848 72.7947 750.528 73.232C750.208 73.6693 749.776 73.9893 749.232 74.192C749.872 74.3627 750.373 74.6773 750.736 75.136C751.099 75.5947 751.28 76.176 751.28 76.88C751.28 77.8827 750.923 78.6773 750.208 79.264C749.504 79.8507 748.411 80.144 746.928 80.144ZM755.916 80.144C755.372 80.144 754.886 80.0373 754.46 79.824C754.033 79.6107 753.692 79.3227 753.436 78.96C753.19 78.5973 753.068 78.1867 753.068 77.728C753.068 77.152 753.212 76.6987 753.5 76.368C753.798 76.0373 754.284 75.7973 754.956 75.648C755.638 75.4987 756.556 75.424 757.708 75.424H758.252V75.008C758.252 74.4 758.124 73.9627 757.868 73.696C757.612 73.4293 757.19 73.296 756.604 73.296C756.156 73.296 755.708 73.3653 755.26 73.504C754.812 73.632 754.353 73.84 753.884 74.128L753.388 72.992C753.793 72.704 754.3 72.4747 754.908 72.304C755.516 72.1333 756.097 72.048 756.652 72.048C757.718 72.048 758.508 72.304 759.02 72.816C759.532 73.3173 759.788 74.1067 759.788 75.184V80H758.268V78.704C758.076 79.152 757.777 79.504 757.372 79.76C756.966 80.016 756.481 80.144 755.916 80.144ZM756.236 78.992C756.812 78.992 757.292 78.7893 757.676 78.384C758.06 77.9787 758.252 77.4667 758.252 76.848V76.416H757.724C756.945 76.416 756.332 76.4533 755.884 76.528C755.446 76.6027 755.132 76.7307 754.94 76.912C754.758 77.0827 754.668 77.3227 754.668 77.632C754.668 78.0373 754.806 78.368 755.084 78.624C755.361 78.8693 755.745 78.992 756.236 78.992ZM762.185 80V72.192H769.257V80H767.641V73.488H763.801V80H762.185ZM771.669 80V72.192H773.141V77.856L777.365 72.192H778.725V80H777.253V74.352L773.029 80H771.669ZM784.61 80.144C783.81 80.144 783.116 79.9787 782.53 79.648C781.954 79.3067 781.506 78.832 781.186 78.224C780.866 77.6053 780.706 76.88 780.706 76.048C780.706 74.8107 781.058 73.8347 781.762 73.12C782.466 72.4053 783.415 72.048 784.61 72.048C785.1 72.048 785.586 72.1333 786.066 72.304C786.546 72.4747 786.94 72.7093 787.25 73.008L786.738 74.144C786.439 73.8667 786.108 73.664 785.746 73.536C785.394 73.3973 785.058 73.328 784.738 73.328C783.98 73.328 783.394 73.568 782.978 74.048C782.572 74.5173 782.37 75.1893 782.37 76.064C782.37 76.9387 782.572 77.6267 782.978 78.128C783.394 78.6187 783.98 78.864 784.738 78.864C785.058 78.864 785.394 78.8 785.746 78.672C786.108 78.5333 786.439 78.3253 786.738 78.048L787.25 79.2C786.94 79.488 786.54 79.7173 786.05 79.888C785.57 80.0587 785.09 80.144 784.61 80.144ZM788.81 80V72.192H790.426V74.896H792.65C793.652 74.896 794.415 75.1147 794.938 75.552C795.46 75.9787 795.722 76.6027 795.722 77.424C795.722 78.2133 795.45 78.8427 794.906 79.312C794.362 79.7707 793.61 80 792.65 80H788.81ZM790.426 78.896H792.442C792.996 78.896 793.428 78.7787 793.738 78.544C794.047 78.2987 794.202 77.9253 794.202 77.424C794.202 76.9333 794.047 76.576 793.738 76.352C793.428 76.1173 792.996 76 792.442 76H790.426V78.896ZM801.716 80V72.192H803.332V75.344H807.22V72.192H808.836V80H807.22V76.624H803.332V80H801.716ZM813.759 80.144C813.215 80.144 812.73 80.0373 812.303 79.824C811.877 79.6107 811.535 79.3227 811.279 78.96C811.034 78.5973 810.911 78.1867 810.911 77.728C810.911 77.152 811.055 76.6987 811.343 76.368C811.642 76.0373 812.127 75.7973 812.799 75.648C813.482 75.4987 814.399 75.424 815.551 75.424H816.095V75.008C816.095 74.4 815.967 73.9627 815.711 73.696C815.455 73.4293 815.034 73.296 814.447 73.296C813.999 73.296 813.551 73.3653 813.103 73.504C812.655 73.632 812.197 73.84 811.727 74.128L811.231 72.992C811.637 72.704 812.143 72.4747 812.751 72.304C813.359 72.1333 813.941 72.048 814.495 72.048C815.562 72.048 816.351 72.304 816.863 72.816C817.375 73.3173 817.631 74.1067 817.631 75.184V80H816.111V78.704C815.919 79.152 815.621 79.504 815.215 79.76C814.81 80.016 814.325 80.144 813.759 80.144ZM814.079 78.992C814.655 78.992 815.135 78.7893 815.519 78.384C815.903 77.9787 816.095 77.4667 816.095 76.848V76.416H815.567C814.789 76.416 814.175 76.4533 813.727 76.528C813.29 76.6027 812.975 76.7307 812.783 76.912C812.602 77.0827 812.511 77.3227 812.511 77.632C812.511 78.0373 812.65 78.368 812.927 78.624C813.205 78.8693 813.589 78.992 814.079 78.992ZM827.688 80.144C826.888 80.144 826.194 79.9787 825.608 79.648C825.032 79.3067 824.584 78.832 824.264 78.224C823.944 77.6053 823.784 76.88 823.784 76.048C823.784 74.8107 824.136 73.8347 824.84 73.12C825.544 72.4053 826.493 72.048 827.688 72.048C828.178 72.048 828.664 72.1333 829.144 72.304C829.624 72.4747 830.018 72.7093 830.328 73.008L829.816 74.144C829.517 73.8667 829.186 73.664 828.824 73.536C828.472 73.3973 828.136 73.328 827.816 73.328C827.058 73.328 826.472 73.568 826.056 74.048C825.65 74.5173 825.448 75.1893 825.448 76.064C825.448 76.9387 825.65 77.6267 826.056 78.128C826.472 78.6187 827.058 78.864 827.816 78.864C828.136 78.864 828.472 78.8 828.824 78.672C829.186 78.5333 829.517 78.3253 829.816 78.048L830.328 79.2C830.018 79.488 829.618 79.7173 829.128 79.888C828.648 80.0587 828.168 80.144 827.688 80.144ZM835.568 80.144C834.288 80.144 833.28 79.7867 832.544 79.072C831.808 78.3467 831.44 77.36 831.44 76.112C831.44 75.312 831.6 74.608 831.92 74C832.251 73.3813 832.704 72.9013 833.28 72.56C833.856 72.2187 834.517 72.048 835.264 72.048C836.341 72.048 837.189 72.3947 837.808 73.088C838.427 73.7707 838.736 74.7147 838.736 75.92V76.464H833.008C833.125 78.0853 833.984 78.896 835.584 78.896C836.032 78.896 836.469 78.8267 836.896 78.688C837.333 78.5493 837.744 78.32 838.128 78L838.608 79.12C838.256 79.44 837.803 79.6907 837.248 79.872C836.693 80.0533 836.133 80.144 835.568 80.144ZM835.328 73.184C834.656 73.184 834.123 73.392 833.728 73.808C833.333 74.224 833.093 74.7787 833.008 75.472H837.376C837.344 74.7467 837.152 74.1867 836.8 73.792C836.448 73.3867 835.957 73.184 835.328 73.184ZM840.67 82.88V72.192H842.254V73.52C842.478 73.072 842.819 72.7147 843.278 72.448C843.736 72.1813 844.264 72.048 844.862 72.048C845.555 72.048 846.158 72.2133 846.67 72.544C847.192 72.8747 847.592 73.344 847.87 73.952C848.158 74.5493 848.302 75.264 848.302 76.096C848.302 76.928 848.158 77.648 847.87 78.256C847.592 78.864 847.192 79.3333 846.67 79.664C846.158 79.984 845.555 80.144 844.862 80.144C844.286 80.144 843.768 80.0213 843.31 79.776C842.862 79.52 842.52 79.1733 842.286 78.736V82.88H840.67ZM844.462 78.896C845.134 78.896 845.667 78.656 846.062 78.176C846.467 77.696 846.67 77.0027 846.67 76.096C846.67 75.1893 846.467 74.5013 846.062 74.032C845.667 73.552 845.134 73.312 844.462 73.312C843.79 73.312 843.251 73.552 842.846 74.032C842.451 74.5013 842.254 75.1893 842.254 76.096C842.254 77.0027 842.451 77.696 842.846 78.176C843.251 78.656 843.79 78.896 844.462 78.896ZM850.279 80V72.192H854.263C855.223 72.192 855.921 72.3733 856.359 72.736C856.807 73.088 857.031 73.5893 857.031 74.24C857.031 74.6453 856.913 75.0027 856.679 75.312C856.455 75.6107 856.145 75.8293 855.751 75.968C856.241 76.0853 856.62 76.3093 856.887 76.64C857.153 76.9707 857.286 77.3653 857.286 77.824C857.286 78.496 857.036 79.0293 856.535 79.424C856.033 79.808 855.319 80 854.391 80H850.279ZM851.799 75.504H854.151C854.588 75.504 854.924 75.4027 855.159 75.2C855.404 74.9973 855.527 74.72 855.527 74.368C855.527 74.0053 855.404 73.728 855.159 73.536C854.924 73.344 854.588 73.248 854.151 73.248H851.799V75.504ZM851.799 78.96H854.295C855.297 78.96 855.799 78.5547 855.799 77.744C855.799 76.944 855.297 76.544 854.295 76.544H851.799V78.96ZM859.169 80V72.192H860.641V77.856L864.865 72.192H866.225V80H864.753V74.352L860.529 80H859.169ZM872.11 80.144C871.31 80.144 870.616 79.9787 870.03 79.648C869.454 79.3067 869.006 78.832 868.686 78.224C868.366 77.6053 868.206 76.88 868.206 76.048C868.206 74.8107 868.558 73.8347 869.262 73.12C869.966 72.4053 870.915 72.048 872.11 72.048C872.6 72.048 873.086 72.1333 873.566 72.304C874.046 72.4747 874.44 72.7093 874.75 73.008L874.238 74.144C873.939 73.8667 873.608 73.664 873.246 73.536C872.894 73.3973 872.558 73.328 872.238 73.328C871.48 73.328 870.894 73.568 870.478 74.048C870.072 74.5173 869.87 75.1893 869.87 76.064C869.87 76.9387 870.072 77.6267 870.478 78.128C870.894 78.6187 871.48 78.864 872.238 78.864C872.558 78.864 872.894 78.8 873.246 78.672C873.608 78.5333 873.939 78.3253 874.238 78.048L874.75 79.2C874.44 79.488 874.04 79.7173 873.55 79.888C873.07 80.0587 872.59 80.144 872.11 80.144Z" fill="white"/>
<path d="M900.176 80L905.2 68.72H906.576L911.616 80H909.92L908.736 77.248H903.024L901.856 80H900.176ZM905.872 70.56L903.616 75.904H908.176L905.904 70.56H905.872ZM912.997 80V72.192H914.613V75.36H915.925L918.341 72.192H920.101L917.461 75.696C917.717 75.8133 917.952 75.9947 918.165 76.24C918.389 76.4747 918.619 76.8 918.853 77.216L920.469 80H918.741L917.381 77.664C917.136 77.248 916.896 76.9707 916.661 76.832C916.437 76.6933 916.123 76.624 915.717 76.624H914.613V80H912.997ZM928.406 82.08V80H921.654V72.192H923.27V78.72H926.918V72.192H928.534V78.72H929.782V82.08H928.406ZM931.404 80V72.192H932.876V77.856L937.1 72.192H938.46V80H936.988V74.352L932.764 80H931.404ZM940.888 80V72.192H942.36V77.856L946.584 72.192H947.944V80H946.472V74.352L942.248 80H940.888Z" fill="white"/>
<path d="M977.04 80L978.784 76.608L973.888 68.72H975.664L979.568 75.088L982.832 68.72H984.544L978.768 80H977.04ZM988.063 80.144C987.263 80.144 986.569 79.9787 985.983 79.648C985.407 79.3067 984.959 78.832 984.639 78.224C984.319 77.6053 984.159 76.88 984.159 76.048C984.159 74.8107 984.511 73.8347 985.215 73.12C985.919 72.4053 986.868 72.048 988.063 72.048C988.553 72.048 989.039 72.1333 989.519 72.304C989.999 72.4747 990.393 72.7093 990.703 73.008L990.191 74.144C989.892 73.8667 989.561 73.664 989.199 73.536C988.847 73.3973 988.511 73.328 988.191 73.328C987.433 73.328 986.847 73.568 986.431 74.048C986.025 74.5173 985.823 75.1893 985.823 76.064C985.823 76.9387 986.025 77.6267 986.431 78.128C986.847 78.6187 987.433 78.864 988.191 78.864C988.511 78.864 988.847 78.8 989.199 78.672C989.561 78.5333 989.892 78.3253 990.191 78.048L990.703 79.2C990.393 79.488 989.993 79.7173 989.503 79.888C989.023 80.0587 988.543 80.144 988.063 80.144ZM991.927 80.208L991.383 78.928C991.852 78.736 992.22 78.4747 992.487 78.144C992.754 77.8027 992.946 77.3333 993.063 76.736C993.18 76.128 993.239 75.344 993.239 74.384V72.192H999.191V80H997.575V73.488H994.743V74.432C994.743 75.6053 994.647 76.5813 994.455 77.36C994.263 78.1387 993.959 78.7573 993.543 79.216C993.138 79.664 992.599 79.9947 991.927 80.208ZM1002.44 82.88L1003.83 79.792L1000.57 72.192H1002.29L1004.69 78.128L1007.13 72.192H1008.79L1004.13 82.88H1002.44ZM1010.12 80V72.192H1015.79V73.488H1011.74V80H1010.12ZM1017.25 80V72.192H1018.72V77.856L1022.94 72.192H1024.3V80H1022.83V74.352L1018.61 80H1017.25Z" fill="white"/>
<path d="M1051.31 80V68.72H1052.98V73.632H1054.78L1057.95 68.72H1059.79L1056.35 73.904C1056.8 74.0747 1057.19 74.3413 1057.54 74.704C1057.88 75.056 1058.18 75.4987 1058.45 76.032L1060.38 80H1058.59L1057.06 76.72C1056.77 76.112 1056.43 75.68 1056.05 75.424C1055.66 75.1573 1055.19 75.024 1054.62 75.024H1052.98V80H1051.31ZM1065.01 80.144C1064.23 80.144 1063.54 79.9787 1062.97 79.648C1062.39 79.3173 1061.94 78.8533 1061.62 78.256C1061.31 77.648 1061.16 76.928 1061.16 76.096C1061.16 75.264 1061.31 74.5493 1061.62 73.952C1061.94 73.344 1062.39 72.8747 1062.97 72.544C1063.54 72.2133 1064.23 72.048 1065.01 72.048C1065.78 72.048 1066.45 72.2133 1067.03 72.544C1067.61 72.8747 1068.05 73.344 1068.37 73.952C1068.69 74.5493 1068.85 75.264 1068.85 76.096C1068.85 76.928 1068.69 77.648 1068.37 78.256C1068.05 78.8533 1067.61 79.3173 1067.03 79.648C1066.45 79.9787 1065.78 80.144 1065.01 80.144ZM1065.01 78.896C1065.68 78.896 1066.21 78.656 1066.61 78.176C1067.02 77.696 1067.22 77.0027 1067.22 76.096C1067.22 75.1893 1067.02 74.5013 1066.61 74.032C1066.21 73.552 1065.68 73.312 1065.01 73.312C1064.34 73.312 1063.8 73.552 1063.4 74.032C1062.99 74.5013 1062.79 75.1893 1062.79 76.096C1062.79 77.0027 1062.99 77.696 1063.4 78.176C1063.8 78.656 1064.34 78.896 1065.01 78.896ZM1070.84 80V72.192H1072.46V75.344H1076.35V72.192H1077.96V80H1076.35V76.624H1072.46V80H1070.84ZM1082 80V73.488H1079.25V72.192H1086.39V73.488H1083.62V80H1082ZM1090.2 80.144C1089.65 80.144 1089.17 80.0373 1088.74 79.824C1088.31 79.6107 1087.97 79.3227 1087.72 78.96C1087.47 78.5973 1087.35 78.1867 1087.35 77.728C1087.35 77.152 1087.49 76.6987 1087.78 76.368C1088.08 76.0373 1088.56 75.7973 1089.24 75.648C1089.92 75.4987 1090.84 75.424 1091.99 75.424H1092.53V75.008C1092.53 74.4 1092.4 73.9627 1092.15 73.696C1091.89 73.4293 1091.47 73.296 1090.88 73.296C1090.44 73.296 1089.99 73.3653 1089.54 73.504C1089.09 73.632 1088.63 73.84 1088.16 74.128L1087.67 72.992C1088.07 72.704 1088.58 72.4747 1089.19 72.304C1089.8 72.1333 1090.38 72.048 1090.93 72.048C1092 72.048 1092.79 72.304 1093.3 72.816C1093.81 73.3173 1094.07 74.1067 1094.07 75.184V80H1092.55V78.704C1092.36 79.152 1092.06 79.504 1091.65 79.76C1091.25 80.016 1090.76 80.144 1090.2 80.144ZM1090.52 78.992C1091.09 78.992 1091.57 78.7893 1091.96 78.384C1092.34 77.9787 1092.53 77.4667 1092.53 76.848V76.416H1092C1091.23 76.416 1090.61 76.4533 1090.16 76.528C1089.73 76.6027 1089.41 76.7307 1089.22 76.912C1089.04 77.0827 1088.95 77.3227 1088.95 77.632C1088.95 78.0373 1089.09 78.368 1089.36 78.624C1089.64 78.8693 1090.03 78.992 1090.52 78.992ZM1096.47 80V72.192H1098.08V75.36H1099.39L1101.81 72.192H1103.57L1100.93 75.696C1101.19 75.8133 1101.42 75.9947 1101.63 76.24C1101.86 76.4747 1102.09 76.8 1102.32 77.216L1103.94 80H1102.21L1100.85 77.664C1100.6 77.248 1100.36 76.9707 1100.13 76.832C1099.91 76.6933 1099.59 76.624 1099.19 76.624H1098.08V80H1096.47ZM1106.75 80V73.488H1104V72.192H1111.14V73.488H1108.37V80H1106.75ZM1112.43 80V72.192H1114.05V74.896H1116.27C1117.28 74.896 1118.04 75.1147 1118.56 75.552C1119.09 75.9787 1119.35 76.6027 1119.35 77.424C1119.35 78.2133 1119.07 78.8427 1118.53 79.312C1117.99 79.7707 1117.23 80 1116.27 80H1112.43ZM1120.4 80V72.192H1122.02V80H1120.4ZM1114.05 78.896H1116.07C1116.62 78.896 1117.05 78.7787 1117.36 78.544C1117.67 78.2987 1117.83 77.9253 1117.83 77.424C1117.83 76.9333 1117.67 76.576 1117.36 76.352C1117.05 76.1173 1116.62 76 1116.07 76H1114.05V78.896Z" fill="white"/>
<g clip-path="url(#clip0_2004_141)">
<path d="M31.9468 9.98254H34.3291V14.6593H36.0261L39.5405 9.98254H42.2614L38.0658 15.4773L42.602 21.9079H39.6587L36.1424 16.88H34.3291V21.9079H31.9468V9.98254Z" fill="white"/>
<path d="M46.1225 9.98254H51.2217L54.3955 21.9079H51.905L49.4105 12.2032H47.9378L45.4413 21.9079H42.9468L46.1225 9.98254Z" fill="white"/>
<path d="M56.1025 9.98244H58.4828V14.7749H60.0717C60.6143 11.8519 62.9049 9.74902 65.8542 9.74902C69.1422 9.74902 71.7507 12.4596 71.7507 15.944C71.7507 19.4285 69.1422 22.1412 65.8542 22.1412C64.4531 22.1382 63.0995 21.6176 62.0386 20.674C60.9778 19.7303 60.28 18.4261 60.0717 16.9976H58.4828V21.9078H56.1025V9.98244ZM65.8542 19.9185C67.7817 19.9185 69.2563 18.3771 69.2563 15.944C69.2563 13.5111 67.7817 11.9718 65.8542 11.9718C63.9267 11.9718 62.452 13.5152 62.452 15.9462C62.452 18.3771 63.9267 19.9185 65.8542 19.9185Z" fill="white"/>
<path d="M73.6782 9.98254H76.0611V14.1883C76.0611 15.5909 76.8545 16.411 78.3291 16.411C79.0692 16.4355 79.8079 16.3163 80.5051 16.0598C80.7446 15.9863 80.9675 15.8672 81.1641 15.7086V9.98254H83.5505V21.9079H81.1641V17.8157C80.9246 17.9879 80.6657 18.1291 80.3929 18.2363C79.6605 18.515 78.8837 18.6498 78.1028 18.6337C75.2678 18.6337 73.6782 17.0209 73.6782 14.428V9.98254Z" fill="white"/>
<path d="M91.2566 9.74902C92.223 9.74878 93.1653 10.059 93.9524 10.6364C94.2986 10.8813 94.6115 11.1726 94.8829 11.5028H94.9971V9.98244H97.3793V21.9078H94.9992V20.2697H94.8849C94.6219 20.6276 94.3083 20.943 93.9545 21.2054C93.177 21.8103 92.2306 22.1387 91.2566 22.1412C88.1966 22.1412 85.8123 19.6851 85.8123 15.944C85.8123 12.2031 88.1945 9.74902 91.2566 9.74902ZM91.7093 19.9185C93.6367 19.9185 94.9992 18.539 94.9992 15.944C94.9992 13.3491 93.6367 11.9718 91.7093 11.9718C89.6469 11.9718 88.3087 13.3513 88.3087 15.9462C88.3087 18.5411 89.6469 19.9185 91.7093 19.9185Z" fill="white"/>
<path d="M100.329 9.98254H106.112C108.38 9.98254 109.628 11.2443 109.628 12.9055C109.628 14.0264 109.173 14.6593 108.72 15.0336C108.454 15.2497 108.143 15.4014 107.813 15.4773V15.5699C108.22 15.6385 108.607 15.7986 108.947 16.0388C109.514 16.4363 110.081 17.1596 110.081 18.4928C110.081 20.3854 108.584 21.9079 106.226 21.9079H100.329V9.98254ZM105.885 14.6593C106.793 14.6593 107.246 14.2388 107.246 13.3724C107.246 12.6469 106.793 12.2032 105.885 12.2032H102.71V14.6593H105.885ZM106.112 19.6852C107.131 19.6852 107.7 19.1005 107.7 18.1669C107.7 17.3468 107.133 16.7622 106.112 16.7622H102.71V19.6852H106.112Z" fill="white"/>
<path d="M111.214 9.98254H121.307V12.2032H117.452V21.9079H115.07V12.2032H111.214V9.98254Z" fill="white"/>
<path d="M128.338 9.74928C129.527 9.74886 130.689 10.112 131.678 10.7928C132.667 11.4736 133.437 12.4414 133.893 13.5739C134.348 14.7064 134.467 15.9526 134.235 17.1549C134.003 18.3573 133.43 19.4616 132.59 20.3284C131.75 21.1953 130.678 21.7855 129.512 22.0246C128.345 22.2636 127.137 22.1407 126.039 21.6715C124.94 21.2021 124.001 20.4075 123.341 19.3881C122.68 18.3686 122.329 17.1702 122.329 15.9444C122.318 15.1279 122.467 14.3176 122.765 13.5613C123.064 12.8049 123.506 12.1178 124.066 11.5405C124.626 10.9631 125.292 10.5072 126.026 10.1996C126.76 9.89193 127.546 9.73883 128.338 9.74928ZM128.338 19.9188C130.402 19.9188 131.854 18.3773 131.854 15.9444C131.854 13.5113 130.402 11.972 128.338 11.972C126.273 11.972 124.823 13.5155 124.823 15.9464C124.823 18.3773 126.273 19.9188 128.338 19.9188Z" fill="white"/>
<path d="M23.2353 14.001L20.9489 14.7665L8.76382 18.8461C8.20686 19.0323 7.60102 18.983 7.07937 18.7089C6.55769 18.4349 6.16288 17.9586 5.98169 17.3846L5.94702 17.2752L8.04583 16.5729L20.7775 12.3103L23.0211 11.5575C23.1245 12.3693 23.1959 13.1837 23.2353 14.001Z" fill="white"/>
<path d="M23.2722 17.0525C23.2497 17.9083 23.1946 18.7663 23.111 19.6201C23.0335 20.4178 22.9302 21.2119 22.801 22.0026L22.7704 22.196C22.5353 23.4975 21.9247 24.6955 21.0187 25.6334C20.1125 26.5714 18.9529 27.2056 17.6916 27.4532H17.6814L17.453 27.4932C13.6044 28.1577 9.6754 28.1577 5.82682 27.4932L5.59838 27.4532C4.33691 27.2059 3.17723 26.5717 2.27106 25.6338C1.3649 24.6958 0.754451 23.4976 0.519593 22.196C0.507354 22.1309 0.497157 22.0678 0.486959 22.0026C-0.161669 18.0232 -0.161669 13.96 0.486959 9.98053C0.486959 9.91534 0.507354 9.85016 0.519593 9.78496C0.756736 8.47925 1.37179 7.27816 2.2838 6.33977C3.19581 5.40139 4.36203 4.76969 5.62898 4.5278C9.54566 3.84678 13.5441 3.83257 17.4652 4.48574L17.6549 4.51729C18.7257 4.7215 19.7281 5.20444 20.5669 5.92026C21.4059 6.63608 22.0534 7.56104 22.4481 8.60736L20.2514 9.34336L8.76397 13.1895C8.48823 13.282 8.19746 13.3176 7.90835 13.2942C7.61931 13.2708 7.33747 13.1889 7.0791 13.0532C6.82075 12.9174 6.59085 12.7305 6.40257 12.5032C6.21429 12.2758 6.07133 12.0124 5.98184 11.728L5.94717 11.6187L8.04598 10.9205L18.638 7.37297C18.1569 7.08854 17.6329 6.8895 17.0879 6.78418C15.2877 6.47186 13.4654 6.3143 11.6399 6.31313C9.76014 6.3231 7.88426 6.49048 6.03079 6.81361C5.22576 6.97409 4.48632 7.38094 3.90891 7.98113C3.33149 8.5813 2.94291 9.34695 2.79383 10.1782L2.76527 10.3464C2.1595 14.0868 2.1595 17.9048 2.76527 21.6451L2.78771 21.7839V21.8134C2.93597 22.6429 3.32275 23.4073 3.89781 24.0073C4.47287 24.6073 5.20965 25.0152 6.01244 25.178L6.16337 25.2053H6.20417C7.99828 25.5169 9.81441 25.6738 11.6338 25.6742C13.4538 25.6736 15.2706 25.5168 17.0654 25.2053H17.1062L17.2571 25.178C18.0599 25.0152 18.7968 24.6073 19.3718 24.0073C19.9468 23.4073 20.3336 22.6429 20.4819 21.8134L20.5084 21.6451C20.5737 21.2414 20.6328 20.8398 20.6838 20.436L11.7949 23.4115C11.5185 23.5036 11.2272 23.5384 10.9377 23.5142C10.6482 23.49 10.3662 23.4071 10.1077 23.2704C9.8493 23.1337 9.6196 22.9458 9.4317 22.7174C9.24381 22.489 9.10147 22.2247 9.01279 21.9395L8.9781 21.8302L11.077 21.1278L20.9204 17.8284L23.2722 17.0525Z" fill="white"/>
</g>
<path opacity="0.4" d="M1352.04 0.5H1352.1C1358.15 0.5 1361.92 1.43329 1364.22 3.73062C1366.52 6.02822 1367.47 9.81448 1367.5 15.8787C1367.48 22.0366 1366.53 25.8839 1364.21 28.2188C1361.9 30.5522 1358.09 31.5 1351.98 31.5C1345.9 31.5 1342.1 30.5524 1339.79 28.219C1337.47 25.8838 1336.52 22.036 1336.5 15.8786C1336.52 9.89334 1337.51 6.10444 1339.85 3.78675C1342.19 1.46798 1346.01 0.5 1352.04 0.5Z" stroke="white"/>
<path d="M428.073 4H428.029C418.951 4 416.036 6.89341 416 15.9089C416.036 25.1722 418.834 28 427.985 28C437.18 28 439.964 25.1722 440 15.9089C439.956 6.78409 437.173 4 428.073 4Z" fill="white"/>
<path d="M460.073 4H460.029C450.951 4 448.036 6.89341 448 15.9089C448.036 25.1722 450.834 28 459.985 28C469.18 28 471.964 25.1722 472 15.9089C471.956 6.78409 469.173 4 460.073 4Z" fill="white"/>
<path opacity="0.4" d="M1392.04 0.5H1392.1C1398.15 0.5 1401.92 1.43329 1404.22 3.73062C1406.52 6.02822 1407.47 9.81448 1407.5 15.8787C1407.48 22.0366 1406.53 25.8839 1404.21 28.2188C1401.9 30.5522 1398.09 31.5 1391.98 31.5C1385.9 31.5 1382.1 30.5524 1379.79 28.219C1377.47 25.8838 1376.52 22.036 1376.5 15.8786C1376.52 9.89334 1377.51 6.10444 1379.85 3.78675C1382.19 1.46798 1386.01 0.5 1392.04 0.5Z" stroke="white"/>
<path d="M1352.1 60H1352.04C1339.93 60 1336.05 63.8579 1336 75.8785C1336.05 88.2296 1339.78 92 1351.98 92C1364.24 92 1367.95 88.2296 1368 75.8785C1367.94 63.7121 1364.23 60 1352.1 60Z" fill="white"/>
<path d="M1346.5 76.3555V81.487" stroke="#222528" stroke-width="2" stroke-linecap="round"/>
<path d="M1351.83 69.5132V81.4869" stroke="#222528" stroke-width="2" stroke-linecap="round"/>
<path d="M1357.17 72.25V81.4868" stroke="#222528" stroke-width="2" stroke-linecap="round"/>
<path d="M1392.1 60H1392.04C1379.93 60 1376.05 63.8579 1376 75.8785C1376.05 88.2296 1379.78 92 1391.98 92C1404.24 92 1407.95 88.2296 1408 75.8785C1407.94 63.7121 1404.23 60 1392.1 60Z" fill="white"/>
<path d="M1390.6 20.1345C1393.69 20.1345 1396.2 17.6419 1396.2 14.5672C1396.2 11.4925 1393.69 9 1390.6 9C1387.51 9 1385 11.4925 1385 14.5672C1385 17.6419 1387.51 20.1345 1390.6 20.1345Z" stroke="white" stroke-width="2" stroke-miterlimit="10"/>
<path d="M1395 18L1399 22" stroke="white" stroke-width="2" stroke-miterlimit="10" stroke-linecap="round"/>
<path d="M1349.39 18.6077C1352.96 22.1762 1356.37 22.9313 1357.63 23C1358.43 21.8221 1358.77 20.8496 1359 19.9804C1358.13 19.1341 1356.87 18.2703 1355.71 17.7843L1354.33 19.157C1353.86 19.0312 1352.58 18.4994 1351.04 16.9608C1349.5 15.4227 1348.97 14.1358 1348.84 13.6668L1350.22 12.294C1349.73 11.1344 1348.87 9.86923 1348.02 9C1347.15 9.22866 1346.18 9.56835 1345 10.3727C1345.07 11.6302 1345.82 15.0388 1349.39 18.6077Z" fill="white"/>
<path d="M460.625 20C455.842 20 453.114 16.997 453 12H455.396C455.475 15.6677 457.241 17.2212 458.64 17.5415V12H460.896V15.1632C462.278 15.027 463.729 13.5856 464.219 12H466.475C466.099 13.954 464.525 15.3954 463.406 15.988C464.525 16.4685 466.318 17.7257 467 20H464.516C463.983 18.4785 462.654 17.3013 460.896 17.1411V20H460.625Z" fill="#222528"/>
<path d="M421.857 15.2257L430.198 11.6646C431.021 11.2937 433.813 10.1057 433.813 10.1057C433.813 10.1057 435.102 9.58662 434.993 10.8488C434.958 11.3679 434.673 13.1863 434.385 15.153L433.491 20.9775C433.491 20.9775 433.419 21.8303 432.811 21.9786C432.203 22.127 431.2 21.4595 431.021 21.3098C430.878 21.1985 428.338 19.5299 427.407 18.7141C427.155 18.4916 426.87 18.0453 427.442 17.5261C428.732 16.3025 430.27 14.7807 431.199 13.8167C431.629 13.3703 432.057 12.332 430.268 13.5942L425.223 17.1197C425.223 17.1197 424.65 17.4905 423.576 17.1553C422.503 16.823 421.251 16.3766 421.251 16.3766C421.251 16.3766 420.391 15.819 421.857 15.2257Z" fill="#222528"/>
<path d="M1392 81.6968C1396.71 78.3437 1398.59 76.7335 1398.94 74.4536C1399.13 73.2975 1398.91 71.7077 1397.61 70.7281C1396.16 69.6321 1393.33 69.6257 1392 71.738C1390.67 69.6257 1387.84 69.6321 1386.39 70.7281C1385.09 71.7077 1384.87 73.2975 1385.06 74.4536C1385.41 76.7335 1387.29 78.3437 1392 81.6968Z" stroke="#222528" stroke-width="2" stroke-miterlimit="10"/>
<defs>
<clipPath id="clip0_2004_141">
<rect width="135" height="24" fill="white" transform="translate(0 4)"/>
</clipPath>
</defs>
</svg>
